<svg xmlns="http://www.w3.org/2000/svg" xmlns:xlink="http://www.w3.org/1999/xlink" width="1280" zoomAndPan="magnify" viewBox="0 0 960 599.999999" height="800" preserveAspectRatio="xMidYMid meet" version="1.0"><defs><clipPath id="59e48eee79"><path d="M 756 0 L 960 0 L 960 113 L 756 113 Z M 756 0 " clip-rule="nonzero"/></clipPath><clipPath id="9081eb03f1"><path d="M 787.507812 -145.09375 L 1097.601562 -85.601562 L 1053.371094 144.945312 L 743.277344 85.453125 Z M 787.507812 -145.09375 " clip-rule="nonzero"/></clipPath><clipPath id="aa86c9adae"><path d="M 787.507812 -145.09375 L 1097.601562 -85.601562 L 1053.371094 144.945312 L 743.277344 85.453125 Z M 787.507812 -145.09375 " clip-rule="nonzero"/></clipPath><clipPath id="24e1254c71"><path d="M 864.667969 339 L 960 339 L 960 440.648438 L 864.667969 440.648438 Z M 864.667969 339 " clip-rule="nonzero"/></clipPath><clipPath id="c126d865b5"><path d="M 956 247.148438 L 960 247.148438 L 960 349 L 956 349 Z M 956 247.148438 " clip-rule="nonzero"/></clipPath><clipPath id="94d2626c40"><path d="M 833.742188 131.121094 L 908.742188 131.121094 L 908.742188 196 L 833.742188 196 Z M 833.742188 131.121094 " clip-rule="nonzero"/></clipPath><clipPath id="b475cf0d04"><path d="M 833.742188 195 L 908.742188 195 L 908.742188 260.121094 L 833.742188 260.121094 Z M 833.742188 195 " clip-rule="nonzero"/></clipPath><clipPath id="29ca5ef74d"><path d="M 0 487 L 148 487 L 148 600 L 0 600 Z M 0 487 " clip-rule="nonzero"/></clipPath><clipPath id="32d4a440d3"><path d="M -115.21875 438.933594 L 194.875 498.425781 L 150.644531 728.96875 L -159.449219 669.476562 Z M -115.21875 438.933594 " clip-rule="nonzero"/></clipPath><clipPath id="0ac025a7ab"><path d="M -115.21875 438.933594 L 194.875 498.425781 L 150.644531 728.96875 L -159.449219 669.476562 Z M -115.21875 438.933594 " clip-rule="nonzero"/></clipPath><clipPath id="2048288ca6"><path d="M 210.019531 0 L 383.269531 0 L 383.269531 70.554688 L 210.019531 70.554688 Z M 210.019531 0 " clip-rule="nonzero"/></clipPath><clipPath id="4d8a50fc6a"><path d="M 794 451 L 897 451 L 897 554 L 794 554 Z M 794 451 " clip-rule="nonzero"/></clipPath><clipPath id="689db261bb"><path d="M 782.414062 467.644531 L 880.261719 438.839844 L 909.070312 536.6875 L 811.222656 565.492188 Z M 782.414062 467.644531 " clip-rule="nonzero"/></clipPath><clipPath id="47380bd0c5"><path d="M 823 436 L 935 436 L 935 548 L 823 548 Z M 823 436 " clip-rule="nonzero"/></clipPath><clipPath id="e4f234e1cd"><path d="M 809.8125 454.441406 L 916.726562 422.964844 L 948.203125 529.878906 L 841.289062 561.355469 Z M 809.8125 454.441406 " clip-rule="nonzero"/></clipPath><clipPath id="2797db8290"><path d="M 277.863281 553.695312 L 489.363281 553.695312 L 489.363281 600 L 277.863281 600 Z M 277.863281 553.695312 " clip-rule="nonzero"/></clipPath><clipPath id="7fe9d2f533"><path d="M 37 288 L 139 288 L 139 389 L 37 389 Z M 37 288 " clip-rule="nonzero"/></clipPath><clipPath id="116087a823"><path d="M 88.132812 288.152344 L 138.515625 338.535156 L 88.132812 388.917969 L 37.753906 338.535156 Z M 88.132812 288.152344 " clip-rule="nonzero"/></clipPath><clipPath id="457db5b6e0"><path d="M 17.5 267.992188 L 88 267.992188 L 88 408.992188 L 17.5 408.992188 Z M 17.5 267.992188 " clip-rule="nonzero"/></clipPath><clipPath id="58e517a53e"><path d="M 450.800781 18.226562 L 488 18.226562 L 488 60.226562 L 450.800781 60.226562 Z M 450.800781 18.226562 " clip-rule="nonzero"/></clipPath><clipPath id="023b503c78"><path d="M 500 18.226562 L 538 18.226562 L 538 60.226562 L 500 60.226562 Z M 500 18.226562 " clip-rule="nonzero"/></clipPath><clipPath id="afe8ace651"><path d="M 550 18.226562 L 588 18.226562 L 588 60.226562 L 550 60.226562 Z M 550 18.226562 " clip-rule="nonzero"/></clipPath><clipPath id="2d00090375"><path d="M 599 18.226562 L 636.800781 18.226562 L 636.800781 60.226562 L 599 60.226562 Z M 599 18.226562 " clip-rule="nonzero"/></clipPath><clipPath id="e40bbc64fc"><path d="M 576.042969 531.535156 L 752.292969 531.535156 L 752.292969 550 L 576.042969 550 Z M 576.042969 531.535156 " clip-rule="nonzero"/></clipPath><clipPath id="02ec49e067"><path d="M 576.042969 557 L 752.292969 557 L 752.292969 575.785156 L 576.042969 575.785156 Z M 576.042969 557 " clip-rule="nonzero"/></clipPath></defs><rect x="-96" width="1152" fill="#ffffff" y="-60" height="719.999999" fill-opacity="1"/><rect x="-96" width="1152" fill="#ffffff" y="-60" height="719.999999" fill-opacity="1"/><rect x="-96" width="1152" fill="#f2f2f2" y="-60" height="719.999999" fill-opacity="1"/><g clip-path="url(#59e48eee79)"><g clip-path="url(#9081eb03f1)"><g clip-path="url(#aa86c9adae)"><path fill="#457373" d="M 777.496094 -17.316406 C 767.890625 7.753906 755.257812 23.210938 756.207031 41.503906 C 758.640625 88.394531 800.8125 81.40625 842.429688 74.664062 C 920.089844 62.082031 914.097656 107.140625 946.238281 111.875 C 1020.894531 122.867188 1075.042969 31.722656 1038.449219 2.203125 C 999.597656 -29.136719 1006.320312 -44.507812 1000.238281 -72.570312 C 993.058594 -105.660156 957.410156 -98.242188 929.390625 -88.851562 C 913.667969 -83.582031 905.828125 -71.050781 890.074219 -70.113281 C 844.835938 -67.414062 832.425781 -98.371094 797.007812 -77.140625 C 778.792969 -66.222656 786.605469 -41.109375 777.496094 -17.316406 " fill-opacity="1" fill-rule="evenodd"/></g></g></g><g clip-path="url(#24e1254c71)"><path fill="#a4bdbe" d="M 864.605469 344.242188 L 869.628906 339.21875 L 965.878906 435.464844 L 960.855469 440.488281 Z M 864.605469 344.242188 " fill-opacity="1" fill-rule="nonzero"/></g><path fill="#a4bdbe" d="M 876.105469 332.71875 L 881.128906 327.691406 L 977.375 423.9375 L 972.351562 428.960938 Z M 876.105469 332.71875 " fill-opacity="1" fill-rule="nonzero"/><path fill="#a4bdbe" d="M 887.636719 321.195312 L 892.660156 316.167969 L 988.910156 412.414062 L 983.886719 417.4375 Z M 887.636719 321.195312 " fill-opacity="1" fill-rule="nonzero"/><path fill="#a4bdbe" d="M 899.152344 309.683594 L 904.179688 304.660156 L 1000.425781 400.90625 L 995.402344 405.929688 Z M 899.152344 309.683594 " fill-opacity="1" fill-rule="nonzero"/><path fill="#a4bdbe" d="M 910.671875 298.175781 L 915.695312 293.152344 L 1011.945312 389.398438 L 1006.917969 394.421875 Z M 910.671875 298.175781 " fill-opacity="1" fill-rule="nonzero"/><path fill="#a4bdbe" d="M 922.167969 286.652344 L 927.191406 281.628906 L 1023.441406 377.871094 L 1018.417969 382.898438 Z M 922.167969 286.652344 " fill-opacity="1" fill-rule="nonzero"/><path fill="#a4bdbe" d="M 933.703125 275.128906 L 938.726562 270.101562 L 1034.976562 366.347656 L 1029.949219 371.371094 Z M 933.703125 275.128906 " fill-opacity="1" fill-rule="nonzero"/><path fill="#a4bdbe" d="M 945.21875 263.617188 L 950.242188 258.59375 L 1046.492188 354.839844 L 1041.464844 359.863281 Z M 945.21875 263.617188 " fill-opacity="1" fill-rule="nonzero"/><g clip-path="url(#c126d865b5)"><path fill="#a4bdbe" d="M 956.734375 252.113281 L 961.757812 247.085938 L 1058.007812 343.332031 L 1052.984375 348.355469 Z M 956.734375 252.113281 " fill-opacity="1" fill-rule="nonzero"/></g><g clip-path="url(#94d2626c40)"><path fill="#d5b9b1" d="M 871.167969 131.179688 L 833.828125 195.695312 L 908.511719 195.695312 Z M 871.167969 131.179688 " fill-opacity="1" fill-rule="nonzero"/></g><g clip-path="url(#b475cf0d04)"><path fill="#a4bdbe" d="M 871.167969 260.207031 L 908.511719 260.207031 L 871.167969 195.695312 L 833.828125 260.207031 Z M 871.167969 260.207031 " fill-opacity="1" fill-rule="nonzero"/></g><g clip-path="url(#29ca5ef74d)"><g clip-path="url(#32d4a440d3)"><g clip-path="url(#0ac025a7ab)"><path fill="#d5b9b1" d="M -125.234375 566.707031 C -134.835938 591.78125 -147.46875 607.238281 -146.519531 625.53125 C -144.085938 672.421875 -101.914062 665.433594 -60.300781 658.691406 C 17.363281 646.109375 11.367188 691.167969 43.507812 695.902344 C 118.167969 706.894531 172.316406 615.75 135.722656 586.230469 C 96.867188 554.890625 103.59375 539.515625 97.507812 511.457031 C 90.332031 478.367188 54.683594 485.785156 26.664062 495.175781 C 10.9375 500.441406 3.101562 512.972656 -12.652344 513.914062 C -57.890625 516.609375 -70.304688 485.65625 -105.71875 506.886719 C -123.933594 517.804688 -116.121094 542.917969 -125.234375 566.707031 " fill-opacity="1" fill-rule="evenodd"/></g></g></g><g clip-path="url(#2048288ca6)"><path fill="#d5b9b1" d="M 296.644531 -59.945312 C 248.804688 -59.945312 210.019531 -30.734375 210.019531 5.304688 C 210.019531 41.339844 248.804688 70.554688 296.644531 70.554688 C 344.488281 70.554688 383.269531 41.339844 383.269531 5.304688 C 383.269531 -30.734375 344.488281 -59.945312 296.644531 -59.945312 " fill-opacity="1" fill-rule="nonzero"/></g><g clip-path="url(#4d8a50fc6a)"><g clip-path="url(#689db261bb)"><path fill="#d5b9b1" d="M 831.339844 453.242188 C 804.320312 461.195312 788.863281 489.550781 796.816406 516.570312 C 804.773438 543.589844 833.125 559.046875 860.144531 551.089844 C 887.164062 543.136719 902.621094 514.785156 894.664062 487.761719 C 886.710938 460.742188 858.359375 445.289062 831.339844 453.242188 " fill-opacity="1" fill-rule="nonzero"/></g></g><g clip-path="url(#47380bd0c5)"><g clip-path="url(#e4f234e1cd)"><path fill="#457373" d="M 894.746094 545.617188 C 880.472656 549.820312 865.398438 548.222656 852.335938 541.085938 C 839.261719 533.976562 829.75 522.171875 825.550781 507.898438 C 821.347656 493.625 822.945312 478.550781 830.082031 465.492188 C 837.191406 452.414062 848.996094 442.902344 863.269531 438.703125 C 877.542969 434.5 892.617188 436.097656 905.675781 443.234375 C 918.757812 450.367188 928.265625 462.148438 932.464844 476.421875 C 936.667969 490.695312 935.070312 505.769531 927.929688 518.828125 C 920.820312 531.90625 909.019531 541.417969 894.746094 545.617188 Z M 864.214844 441.90625 C 850.796875 445.855469 839.707031 454.808594 833.015625 467.089844 C 826.320312 479.367188 824.804688 493.535156 828.753906 506.953125 C 832.703125 520.371094 841.65625 531.457031 853.9375 538.152344 C 866.214844 544.847656 880.382812 546.363281 893.800781 542.414062 C 907.21875 538.464844 918.304688 529.511719 925 517.230469 C 931.695312 504.953125 933.210938 490.785156 929.261719 477.367188 C 925.3125 463.949219 916.359375 452.859375 904.078125 446.167969 C 891.800781 439.472656 877.632812 437.957031 864.214844 441.90625 Z M 864.214844 441.90625 " fill-opacity="1" fill-rule="nonzero"/></g></g><g clip-path="url(#2797db8290)"><path fill="#a4bdbe" d="M 277.863281 553.695312 L 489.363281 553.695312 L 489.363281 665.445312 L 277.863281 665.445312 L 277.863281 553.695312 " fill-opacity="1" fill-rule="nonzero"/></g><g clip-path="url(#7fe9d2f533)"><g clip-path="url(#116087a823)"><path fill="#457373" d="M 88.132812 288.152344 L 37.753906 338.535156 L 88.132812 388.917969 L 138.515625 338.535156 L 88.132812 288.152344 M 88.132812 385.707031 L 40.929688 338.5 L 88.132812 291.296875 L 135.339844 338.5 L 88.132812 385.707031 " fill-opacity="1" fill-rule="nonzero"/></g></g><g clip-path="url(#457db5b6e0)"><path fill="#457373" d="M 87.957031 338.492188 L 17.542969 267.992188 L 17.542969 408.992188 Z M 87.957031 338.492188 " fill-opacity="1" fill-rule="nonzero"/></g><g clip-path="url(#58e517a53e)"><path fill="#457373" d="M 457.621094 39.285156 L 483.074219 54.039062 L 483.074219 24.535156 Z M 485.339844 60.246094 C 484.949219 60.246094 484.558594 60.144531 484.207031 59.941406 L 451.964844 41.253906 C 451.261719 40.847656 450.832031 40.101562 450.832031 39.285156 C 450.832031 38.476562 451.261719 37.726562 451.964844 37.320312 L 484.207031 18.632812 C 484.910156 18.226562 485.769531 18.226562 486.472656 18.632812 C 487.171875 19.039062 487.601562 19.789062 487.601562 20.601562 L 487.601562 57.972656 C 487.601562 58.785156 487.171875 59.535156 486.472656 59.941406 C 486.121094 60.144531 485.730469 60.246094 485.339844 60.246094 " fill-opacity="1" fill-rule="nonzero"/></g><g clip-path="url(#023b503c78)"><path fill="#a4bdbe" d="M 507.324219 39.285156 L 532.78125 54.039062 L 532.78125 24.535156 Z M 535.042969 60.246094 C 534.652344 60.246094 534.261719 60.144531 533.910156 59.941406 L 501.664062 41.253906 C 500.964844 40.847656 500.535156 40.101562 500.535156 39.285156 C 500.535156 38.476562 500.964844 37.726562 501.664062 37.320312 L 533.910156 18.632812 C 534.609375 18.226562 535.472656 18.226562 536.171875 18.632812 C 536.871094 19.039062 537.304688 19.789062 537.304688 20.601562 L 537.304688 57.972656 C 537.304688 58.785156 536.871094 59.535156 536.171875 59.941406 C 535.824219 60.144531 535.433594 60.246094 535.042969 60.246094 " fill-opacity="1" fill-rule="nonzero"/></g><g clip-path="url(#afe8ace651)"><path fill="#457373" d="M 557.027344 39.285156 L 582.480469 54.039062 L 582.480469 24.535156 Z M 584.746094 60.246094 C 584.355469 60.246094 583.964844 60.144531 583.613281 59.941406 L 551.367188 41.253906 C 550.667969 40.847656 550.238281 40.101562 550.238281 39.285156 C 550.238281 38.476562 550.667969 37.726562 551.367188 37.320312 L 583.613281 18.632812 C 584.316406 18.226562 585.175781 18.226562 585.878906 18.632812 C 586.578125 19.039062 587.011719 19.789062 587.011719 20.601562 L 587.011719 57.972656 C 587.011719 58.785156 586.578125 59.535156 585.878906 59.941406 C 585.527344 60.144531 585.136719 60.246094 584.746094 60.246094 " fill-opacity="1" fill-rule="nonzero"/></g><g clip-path="url(#2d00090375)"><path fill="#a4bdbe" d="M 606.730469 39.285156 L 632.1875 54.039062 L 632.1875 24.535156 Z M 634.449219 60.246094 C 634.058594 60.246094 633.667969 60.144531 633.316406 59.941406 L 601.070312 41.253906 C 600.371094 40.847656 599.9375 40.101562 599.9375 39.285156 C 599.9375 38.476562 600.371094 37.726562 601.070312 37.320312 L 633.316406 18.632812 C 634.015625 18.226562 634.878906 18.226562 635.578125 18.632812 C 636.277344 19.039062 636.710938 19.789062 636.710938 20.601562 L 636.710938 57.972656 C 636.710938 58.785156 636.277344 59.535156 635.578125 59.941406 C 635.230469 60.144531 634.839844 60.246094 634.449219 60.246094 " fill-opacity="1" fill-rule="nonzero"/></g><g clip-path="url(#e40bbc64fc)"><path fill="#a4bdbe" d="M 707.5625 531.542969 L 729.277344 544.160156 L 749.738281 532.269531 L 752.246094 536.582031 L 729.277344 549.921875 L 707.5625 537.308594 L 685.851562 549.921875 L 664.136719 537.308594 L 642.421875 549.921875 L 620.707031 537.308594 L 598.992188 549.921875 L 576.023438 536.582031 L 578.53125 532.269531 L 598.992188 544.160156 L 620.707031 531.542969 L 642.421875 544.160156 L 664.136719 531.542969 L 685.851562 544.160156 L 707.5625 531.542969 " fill-opacity="1" fill-rule="nonzero"/></g><g clip-path="url(#02ec49e067)"><path fill="#a4bdbe" d="M 707.5625 557.320312 L 729.277344 569.9375 L 749.738281 558.050781 L 752.246094 562.359375 L 729.277344 575.703125 L 707.5625 563.085938 L 685.851562 575.703125 L 664.136719 563.085938 L 642.421875 575.699219 L 620.707031 563.085938 L 598.992188 575.703125 L 576.023438 562.359375 L 578.53125 558.050781 L 598.992188 569.9375 L 620.707031 557.320312 L 642.421875 569.9375 L 664.136719 557.320312 L 685.851562 569.9375 L 707.5625 557.320312 " fill-opacity="1" fill-rule="nonzero"/></g></svg>