<svg xmlns="http://www.w3.org/2000/svg" xmlns:xlink="http://www.w3.org/1999/xlink" width="1280" zoomAndPan="magnify" viewBox="0 0 960 599.999999" height="800" preserveAspectRatio="xMidYMid meet" version="1.0"><defs><clipPath id="a90d66c274"><path d="M 90 0 L 122.921875 0 L 122.921875 24 L 90 24 Z M 90 0 " clip-rule="nonzero"/></clipPath><clipPath id="6ff2db0f92"><path d="M 90 43 L 122.921875 43 L 122.921875 76 L 90 76 Z M 90 43 " clip-rule="nonzero"/></clipPath><clipPath id="03c58b50ef"><path d="M 90 95 L 122.921875 95 L 122.921875 128 L 90 128 Z M 90 95 " clip-rule="nonzero"/></clipPath><clipPath id="bc38ff5288"><path d="M 90 147 L 122.921875 147 L 122.921875 180 L 90 180 Z M 90 147 " clip-rule="nonzero"/></clipPath><clipPath id="558c9c9a11"><path d="M 946 493.449219 L 954 493.449219 L 954 500 L 946 500 Z M 946 493.449219 " clip-rule="nonzero"/></clipPath><clipPath id="69ef524402"><path d="M 928 493.449219 L 936 493.449219 L 936 500 L 928 500 Z M 928 493.449219 " clip-rule="nonzero"/></clipPath><clipPath id="eff93657ad"><path d="M 910 493.449219 L 918 493.449219 L 918 500 L 910 500 Z M 910 493.449219 " clip-rule="nonzero"/></clipPath><clipPath id="bc7ab32630"><path d="M 892 493.449219 L 900 493.449219 L 900 500 L 892 500 Z M 892 493.449219 " clip-rule="nonzero"/></clipPath><clipPath id="3d676b0b51"><path d="M 874 493.449219 L 882 493.449219 L 882 500 L 874 500 Z M 874 493.449219 " clip-rule="nonzero"/></clipPath><clipPath id="8974232488"><path d="M 856 493.449219 L 864 493.449219 L 864 500 L 856 500 Z M 856 493.449219 " clip-rule="nonzero"/></clipPath><clipPath id="e0d4edcf62"><path d="M 838 493.449219 L 846 493.449219 L 846 500 L 838 500 Z M 838 493.449219 " clip-rule="nonzero"/></clipPath><clipPath id="753c06b9af"><path d="M 820 493.449219 L 828 493.449219 L 828 500 L 820 500 Z M 820 493.449219 " clip-rule="nonzero"/></clipPath><clipPath id="f063ddc1d2"><path d="M 802 493.449219 L 810 493.449219 L 810 500 L 802 500 Z M 802 493.449219 " clip-rule="nonzero"/></clipPath><clipPath id="c63613d064"><path d="M 784 493.449219 L 792 493.449219 L 792 500 L 784 500 Z M 784 493.449219 " clip-rule="nonzero"/></clipPath><clipPath id="f00444c966"><path d="M 766 493.449219 L 774 493.449219 L 774 500 L 766 500 Z M 766 493.449219 " clip-rule="nonzero"/></clipPath><clipPath id="e7737c1233"><path d="M 749.011719 493.449219 L 756 493.449219 L 756 500 L 749.011719 500 Z M 749.011719 493.449219 " clip-rule="nonzero"/></clipPath><clipPath id="d453280762"><path d="M 861.300781 220.582031 L 938.550781 220.582031 L 938.550781 460.582031 L 861.300781 460.582031 Z M 861.300781 220.582031 " clip-rule="nonzero"/></clipPath><clipPath id="28b6433e3a"><path d="M 749.011719 27 L 874 27 L 874 151.332031 L 749.011719 151.332031 Z M 749.011719 27 " clip-rule="nonzero"/></clipPath><clipPath id="f98e7dc456"><path d="M 749.011719 44 L 856 44 L 856 151 L 749.011719 151 Z M 749.011719 44 " clip-rule="nonzero"/></clipPath><clipPath id="d8353ae29e"><path d="M 0 380.800781 L 91.285156 380.800781 L 91.285156 563.050781 L 0 563.050781 Z M 0 380.800781 " clip-rule="nonzero"/></clipPath><clipPath id="979cc9be9e"><path d="M 0 555 L 126.484375 555 L 126.484375 571.488281 L 0 571.488281 Z M 0 555 " clip-rule="nonzero"/></clipPath><clipPath id="d4d7781a58"><path d="M 0 532 L 126.484375 532 L 126.484375 548 L 0 548 Z M 0 532 " clip-rule="nonzero"/></clipPath><clipPath id="0f09c00f3d"><path d="M 0 508.488281 L 126.484375 508.488281 L 126.484375 525 L 0 525 Z M 0 508.488281 " clip-rule="nonzero"/></clipPath><clipPath id="cb802051d0"><path d="M 0 480.894531 L 150.886719 480.894531 L 150.886719 600 L 0 600 Z M 0 480.894531 " clip-rule="nonzero"/></clipPath><clipPath id="9dd9c3d7fb"><path d="M 320 516 L 694 516 L 694 600 L 320 600 Z M 320 516 " clip-rule="nonzero"/></clipPath><clipPath id="6c892f8c3a"><path d="M 574.859375 826.101562 L 306.269531 643.554688 L 441.175781 445.0625 L 709.765625 627.605469 Z M 574.859375 826.101562 " clip-rule="nonzero"/></clipPath><clipPath id="fa6aa4b4e7"><path d="M 574.859375 826.101562 L 306.269531 643.554688 L 441.175781 445.0625 L 709.765625 627.605469 Z M 574.859375 826.101562 " clip-rule="nonzero"/></clipPath><clipPath id="38401cc4b7"><path d="M 318 515 L 695 515 L 695 600 L 318 600 Z M 318 515 " clip-rule="nonzero"/></clipPath><clipPath id="7ee20852a6"><path d="M 574.859375 826.101562 L 306.269531 643.554688 L 441.175781 445.0625 L 709.765625 627.605469 Z M 574.859375 826.101562 " clip-rule="nonzero"/></clipPath><clipPath id="dcc151d4bc"><path d="M 574.859375 826.101562 L 306.269531 643.554688 L 441.175781 445.0625 L 709.765625 627.605469 Z M 574.859375 826.101562 " clip-rule="nonzero"/></clipPath></defs><rect x="-96" width="1152" fill="#ffffff" y="-60" height="719.999999" fill-opacity="1"/><rect x="-96" width="1152" fill="#ffffff" y="-60" height="719.999999" fill-opacity="1"/><rect x="-96" width="1152" fill="#f2f2f2" y="-60" height="719.999999" fill-opacity="1"/><path fill="#d5b9b1" d="M -0.078125 -8.152344 C -8.9375 -8.152344 -16.136719 -0.949219 -16.136719 7.917969 C -16.136719 16.78125 -8.9375 23.984375 -0.078125 23.984375 C 8.78125 23.984375 15.980469 16.78125 15.980469 7.917969 C 15.980469 -0.949219 8.78125 -8.152344 -0.078125 -8.152344 Z M -0.078125 18.152344 C -5.730469 18.152344 -10.304688 13.574219 -10.304688 7.917969 C -10.304688 2.261719 -5.730469 -2.316406 -0.078125 -2.316406 C 5.578125 -2.316406 10.152344 2.261719 10.152344 7.917969 C 10.152344 13.574219 5.578125 18.152344 -0.078125 18.152344 Z M -0.078125 18.152344 " fill-opacity="1" fill-rule="nonzero"/><path fill="#d5b9b1" d="M 53.371094 -8.152344 C 44.511719 -8.152344 37.3125 -0.949219 37.3125 7.917969 C 37.3125 16.78125 44.511719 23.984375 53.371094 23.984375 C 62.230469 23.984375 69.429688 16.78125 69.429688 7.917969 C 69.429688 -0.949219 62.230469 -8.152344 53.371094 -8.152344 Z M 53.371094 18.152344 C 47.71875 18.152344 43.144531 13.574219 43.144531 7.917969 C 43.144531 2.261719 47.71875 -2.316406 53.371094 -2.316406 C 59.027344 -2.316406 63.601562 2.261719 63.601562 7.917969 C 63.601562 13.574219 59.027344 18.152344 53.371094 18.152344 Z M 53.371094 18.152344 " fill-opacity="1" fill-rule="nonzero"/><g clip-path="url(#a90d66c274)"><path fill="#d5b9b1" d="M 106.851562 -8.152344 C 97.992188 -8.152344 90.792969 -0.949219 90.792969 7.917969 C 90.792969 16.78125 97.992188 23.984375 106.851562 23.984375 C 115.710938 23.984375 122.910156 16.78125 122.910156 7.917969 C 122.910156 -0.949219 115.710938 -8.152344 106.851562 -8.152344 Z M 106.851562 18.152344 C 101.195312 18.152344 96.621094 13.574219 96.621094 7.917969 C 96.621094 2.261719 101.195312 -2.316406 106.851562 -2.316406 C 112.503906 -2.316406 117.082031 2.261719 117.082031 7.917969 C 117.082031 13.574219 112.476562 18.152344 106.851562 18.152344 Z M 106.851562 18.152344 " fill-opacity="1" fill-rule="nonzero"/></g><path fill="#d5b9b1" d="M -0.078125 43.785156 C -8.9375 43.785156 -16.136719 50.988281 -16.136719 59.855469 C -16.136719 68.71875 -8.9375 75.921875 -0.078125 75.921875 C 8.78125 75.921875 15.980469 68.71875 15.980469 59.855469 C 15.980469 50.988281 8.78125 43.785156 -0.078125 43.785156 Z M -0.078125 70.089844 C -5.730469 70.089844 -10.304688 65.511719 -10.304688 59.855469 C -10.304688 54.195312 -5.730469 49.617188 -0.078125 49.617188 C 5.578125 49.617188 10.152344 54.195312 10.152344 59.855469 C 10.152344 65.511719 5.578125 70.089844 -0.078125 70.089844 Z M -0.078125 70.089844 " fill-opacity="1" fill-rule="nonzero"/><path fill="#d5b9b1" d="M 53.371094 43.785156 C 44.511719 43.785156 37.3125 50.988281 37.3125 59.855469 C 37.3125 68.71875 44.511719 75.921875 53.371094 75.921875 C 62.230469 75.921875 69.429688 68.71875 69.429688 59.855469 C 69.429688 50.988281 62.230469 43.785156 53.371094 43.785156 Z M 53.371094 70.089844 C 47.71875 70.089844 43.144531 65.511719 43.144531 59.855469 C 43.144531 54.195312 47.71875 49.617188 53.371094 49.617188 C 59.027344 49.617188 63.601562 54.195312 63.601562 59.855469 C 63.601562 65.511719 59.027344 70.089844 53.371094 70.089844 Z M 53.371094 70.089844 " fill-opacity="1" fill-rule="nonzero"/><g clip-path="url(#6ff2db0f92)"><path fill="#d5b9b1" d="M 106.851562 43.785156 C 97.992188 43.785156 90.792969 50.988281 90.792969 59.855469 C 90.792969 68.71875 97.992188 75.921875 106.851562 75.921875 C 115.710938 75.921875 122.910156 68.71875 122.910156 59.855469 C 122.910156 50.988281 115.710938 43.785156 106.851562 43.785156 Z M 106.851562 70.089844 C 101.195312 70.089844 96.621094 65.511719 96.621094 59.855469 C 96.621094 54.195312 101.195312 49.617188 106.851562 49.617188 C 112.503906 49.617188 117.082031 54.195312 117.082031 59.855469 C 117.082031 65.511719 112.476562 70.089844 106.851562 70.089844 Z M 106.851562 70.089844 " fill-opacity="1" fill-rule="nonzero"/></g><path fill="#d5b9b1" d="M -0.078125 95.722656 C -8.9375 95.722656 -16.136719 102.925781 -16.136719 111.789062 C -16.136719 120.65625 -8.9375 127.859375 -0.078125 127.859375 C 8.78125 127.859375 15.980469 120.65625 15.980469 111.789062 C 15.980469 102.925781 8.78125 95.722656 -0.078125 95.722656 Z M -0.078125 122.027344 C -5.730469 122.027344 -10.304688 117.449219 -10.304688 111.789062 C -10.304688 106.132812 -5.730469 101.554688 -0.078125 101.554688 C 5.578125 101.554688 10.152344 106.132812 10.152344 111.792969 C 10.152344 117.449219 5.578125 122.027344 -0.078125 122.027344 Z M -0.078125 122.027344 " fill-opacity="1" fill-rule="nonzero"/><path fill="#d5b9b1" d="M 53.371094 95.722656 C 44.511719 95.722656 37.3125 102.925781 37.3125 111.789062 C 37.3125 120.65625 44.511719 127.859375 53.371094 127.859375 C 62.230469 127.859375 69.429688 120.65625 69.429688 111.789062 C 69.429688 102.925781 62.230469 95.722656 53.371094 95.722656 Z M 53.371094 122.027344 C 47.71875 122.027344 43.144531 117.449219 43.144531 111.789062 C 43.144531 106.132812 47.71875 101.554688 53.371094 101.554688 C 59.027344 101.554688 63.601562 106.132812 63.601562 111.789062 C 63.601562 117.449219 59.027344 122.027344 53.371094 122.027344 Z M 53.371094 122.027344 " fill-opacity="1" fill-rule="nonzero"/><g clip-path="url(#03c58b50ef)"><path fill="#d5b9b1" d="M 106.851562 95.722656 C 97.992188 95.722656 90.792969 102.925781 90.792969 111.789062 C 90.792969 120.65625 97.992188 127.859375 106.851562 127.859375 C 115.710938 127.859375 122.910156 120.65625 122.910156 111.789062 C 122.910156 102.925781 115.710938 95.722656 106.851562 95.722656 Z M 106.851562 122.027344 C 101.195312 122.027344 96.621094 117.449219 96.621094 111.789062 C 96.621094 106.132812 101.195312 101.554688 106.851562 101.554688 C 112.503906 101.554688 117.082031 106.132812 117.082031 111.789062 C 117.082031 117.449219 112.476562 122.027344 106.851562 122.027344 Z M 106.851562 122.027344 " fill-opacity="1" fill-rule="nonzero"/></g><path fill="#d5b9b1" d="M -0.078125 147.660156 C -8.9375 147.660156 -16.136719 154.863281 -16.136719 163.726562 C -16.136719 172.59375 -8.9375 179.796875 -0.078125 179.796875 C 8.78125 179.796875 15.980469 172.59375 15.980469 163.726562 C 15.980469 154.863281 8.78125 147.660156 -0.078125 147.660156 Z M -0.078125 173.964844 C -5.730469 173.964844 -10.304688 169.386719 -10.304688 163.726562 C -10.304688 158.070312 -5.730469 153.492188 -0.078125 153.492188 C 5.578125 153.492188 10.152344 158.070312 10.152344 163.726562 C 10.152344 169.386719 5.578125 173.964844 -0.078125 173.964844 Z M -0.078125 173.964844 " fill-opacity="1" fill-rule="nonzero"/><path fill="#d5b9b1" d="M 53.371094 147.660156 C 44.511719 147.660156 37.3125 154.863281 37.3125 163.726562 C 37.3125 172.59375 44.511719 179.796875 53.371094 179.796875 C 62.230469 179.796875 69.429688 172.59375 69.429688 163.726562 C 69.429688 154.863281 62.230469 147.660156 53.371094 147.660156 Z M 53.371094 173.964844 C 47.71875 173.964844 43.144531 169.386719 43.144531 163.726562 C 43.144531 158.070312 47.71875 153.492188 53.371094 153.492188 C 59.027344 153.492188 63.601562 158.070312 63.601562 163.726562 C 63.601562 169.386719 59.027344 173.964844 53.371094 173.964844 Z M 53.371094 173.964844 " fill-opacity="1" fill-rule="nonzero"/><g clip-path="url(#bc38ff5288)"><path fill="#d5b9b1" d="M 106.851562 147.660156 C 97.992188 147.660156 90.792969 154.863281 90.792969 163.726562 C 90.792969 172.59375 97.992188 179.796875 106.851562 179.796875 C 115.710938 179.796875 122.910156 172.59375 122.910156 163.726562 C 122.910156 154.863281 115.710938 147.660156 106.851562 147.660156 Z M 106.851562 173.964844 C 101.195312 173.964844 96.621094 169.386719 96.621094 163.726562 C 96.621094 158.070312 101.195312 153.492188 106.851562 153.492188 C 112.503906 153.492188 117.082031 158.070312 117.082031 163.726562 C 117.082031 169.386719 112.476562 173.964844 106.851562 173.964844 Z M 106.851562 173.964844 " fill-opacity="1" fill-rule="nonzero"/></g><g clip-path="url(#558c9c9a11)"><path fill="#a4bdbe" d="M 946.769531 496.585938 C 946.769531 494.847656 948.175781 493.441406 949.914062 493.441406 C 951.652344 493.441406 953.0625 494.847656 953.0625 496.585938 C 953.0625 498.324219 951.652344 499.734375 949.914062 499.734375 C 948.175781 499.734375 946.769531 498.324219 946.769531 496.585938 " fill-opacity="1" fill-rule="nonzero"/></g><g clip-path="url(#69ef524402)"><path fill="#a4bdbe" d="M 928.789062 496.585938 C 928.789062 494.847656 930.199219 493.441406 931.9375 493.441406 C 933.675781 493.441406 935.082031 494.847656 935.082031 496.585938 C 935.082031 498.324219 933.675781 499.734375 931.9375 499.734375 C 930.199219 499.734375 928.789062 498.324219 928.789062 496.585938 " fill-opacity="1" fill-rule="nonzero"/></g><g clip-path="url(#eff93657ad)"><path fill="#a4bdbe" d="M 910.8125 496.585938 C 910.8125 494.847656 912.21875 493.441406 913.957031 493.441406 C 915.695312 493.441406 917.105469 494.847656 917.105469 496.585938 C 917.105469 498.324219 915.695312 499.734375 913.957031 499.734375 C 912.21875 499.734375 910.8125 498.324219 910.8125 496.585938 " fill-opacity="1" fill-rule="nonzero"/></g><g clip-path="url(#bc7ab32630)"><path fill="#a4bdbe" d="M 892.832031 496.585938 C 892.832031 494.847656 894.242188 493.441406 895.980469 493.441406 C 897.71875 493.441406 899.125 494.847656 899.125 496.585938 C 899.125 498.324219 897.71875 499.734375 895.980469 499.734375 C 894.242188 499.734375 892.832031 498.324219 892.832031 496.585938 " fill-opacity="1" fill-rule="nonzero"/></g><g clip-path="url(#3d676b0b51)"><path fill="#a4bdbe" d="M 874.855469 496.585938 C 874.855469 494.847656 876.261719 493.441406 878 493.441406 C 879.738281 493.441406 881.148438 494.847656 881.148438 496.585938 C 881.148438 498.324219 879.738281 499.734375 878 499.734375 C 876.261719 499.734375 874.855469 498.324219 874.855469 496.585938 " fill-opacity="1" fill-rule="nonzero"/></g><g clip-path="url(#8974232488)"><path fill="#a4bdbe" d="M 856.875 496.585938 C 856.875 494.847656 858.285156 493.441406 860.023438 493.441406 C 861.761719 493.441406 863.167969 494.847656 863.167969 496.585938 C 863.167969 498.324219 861.761719 499.734375 860.023438 499.734375 C 858.285156 499.734375 856.875 498.324219 856.875 496.585938 " fill-opacity="1" fill-rule="nonzero"/></g><g clip-path="url(#e0d4edcf62)"><path fill="#a4bdbe" d="M 838.894531 496.585938 C 838.894531 494.847656 840.304688 493.441406 842.042969 493.441406 C 843.78125 493.441406 845.1875 494.847656 845.1875 496.585938 C 845.1875 498.324219 843.78125 499.734375 842.042969 499.734375 C 840.304688 499.734375 838.894531 498.324219 838.894531 496.585938 " fill-opacity="1" fill-rule="nonzero"/></g><g clip-path="url(#753c06b9af)"><path fill="#a4bdbe" d="M 820.917969 496.585938 C 820.917969 494.847656 822.328125 493.441406 824.066406 493.441406 C 825.800781 493.441406 827.210938 494.847656 827.210938 496.585938 C 827.210938 498.324219 825.800781 499.734375 824.066406 499.734375 C 822.328125 499.734375 820.917969 498.324219 820.917969 496.585938 " fill-opacity="1" fill-rule="nonzero"/></g><g clip-path="url(#f063ddc1d2)"><path fill="#a4bdbe" d="M 802.941406 496.585938 C 802.941406 494.847656 804.347656 493.441406 806.085938 493.441406 C 807.824219 493.441406 809.230469 494.847656 809.230469 496.585938 C 809.230469 498.324219 807.824219 499.734375 806.085938 499.734375 C 804.347656 499.734375 802.941406 498.324219 802.941406 496.585938 " fill-opacity="1" fill-rule="nonzero"/></g><g clip-path="url(#c63613d064)"><path fill="#a4bdbe" d="M 784.960938 496.585938 C 784.960938 494.847656 786.371094 493.441406 788.105469 493.441406 C 789.84375 493.441406 791.253906 494.847656 791.253906 496.585938 C 791.253906 498.324219 789.84375 499.734375 788.105469 499.734375 C 786.371094 499.734375 784.960938 498.324219 784.960938 496.585938 " fill-opacity="1" fill-rule="nonzero"/></g><g clip-path="url(#f00444c966)"><path fill="#a4bdbe" d="M 766.984375 496.585938 C 766.984375 494.847656 768.390625 493.441406 770.128906 493.441406 C 771.867188 493.441406 773.273438 494.847656 773.273438 496.585938 C 773.273438 498.324219 771.867188 499.734375 770.128906 499.734375 C 768.390625 499.734375 766.984375 498.324219 766.984375 496.585938 " fill-opacity="1" fill-rule="nonzero"/></g><g clip-path="url(#e7737c1233)"><path fill="#a4bdbe" d="M 749.003906 496.585938 C 749.003906 494.847656 750.414062 493.441406 752.148438 493.441406 C 753.886719 493.441406 755.296875 494.847656 755.296875 496.585938 C 755.296875 498.324219 753.886719 499.734375 752.148438 499.734375 C 750.414062 499.734375 749.003906 498.324219 749.003906 496.585938 " fill-opacity="1" fill-rule="nonzero"/></g><path fill="#a4bdbe" d="M 946.769531 514.566406 C 946.769531 512.828125 948.175781 511.417969 949.914062 511.417969 C 951.652344 511.417969 953.0625 512.828125 953.0625 514.566406 C 953.0625 516.300781 951.652344 517.710938 949.914062 517.710938 C 948.175781 517.710938 946.769531 516.300781 946.769531 514.566406 " fill-opacity="1" fill-rule="nonzero"/><path fill="#a4bdbe" d="M 928.789062 514.566406 C 928.789062 512.828125 930.199219 511.417969 931.9375 511.417969 C 933.675781 511.417969 935.082031 512.828125 935.082031 514.566406 C 935.082031 516.300781 933.675781 517.710938 931.9375 517.710938 C 930.199219 517.710938 928.789062 516.300781 928.789062 514.566406 " fill-opacity="1" fill-rule="nonzero"/><path fill="#a4bdbe" d="M 910.8125 514.566406 C 910.8125 512.828125 912.21875 511.417969 913.957031 511.417969 C 915.695312 511.417969 917.105469 512.828125 917.105469 514.566406 C 917.105469 516.300781 915.695312 517.710938 913.957031 517.710938 C 912.21875 517.710938 910.8125 516.300781 910.8125 514.566406 " fill-opacity="1" fill-rule="nonzero"/><path fill="#a4bdbe" d="M 892.832031 514.566406 C 892.832031 512.828125 894.242188 511.417969 895.980469 511.417969 C 897.71875 511.417969 899.125 512.828125 899.125 514.566406 C 899.125 516.300781 897.71875 517.710938 895.980469 517.710938 C 894.242188 517.710938 892.832031 516.300781 892.832031 514.566406 " fill-opacity="1" fill-rule="nonzero"/><path fill="#a4bdbe" d="M 874.855469 514.566406 C 874.855469 512.828125 876.261719 511.417969 878 511.417969 C 879.738281 511.417969 881.148438 512.828125 881.148438 514.566406 C 881.148438 516.300781 879.738281 517.710938 878 517.710938 C 876.261719 517.710938 874.855469 516.300781 874.855469 514.566406 " fill-opacity="1" fill-rule="nonzero"/><path fill="#a4bdbe" d="M 856.875 514.566406 C 856.875 512.828125 858.285156 511.417969 860.023438 511.417969 C 861.761719 511.417969 863.167969 512.828125 863.167969 514.566406 C 863.167969 516.300781 861.761719 517.710938 860.023438 517.710938 C 858.285156 517.710938 856.875 516.300781 856.875 514.566406 " fill-opacity="1" fill-rule="nonzero"/><path fill="#a4bdbe" d="M 838.894531 514.566406 C 838.894531 512.828125 840.304688 511.417969 842.042969 511.417969 C 843.78125 511.417969 845.1875 512.828125 845.1875 514.566406 C 845.1875 516.300781 843.78125 517.710938 842.042969 517.710938 C 840.304688 517.710938 838.894531 516.300781 838.894531 514.566406 " fill-opacity="1" fill-rule="nonzero"/><path fill="#a4bdbe" d="M 820.917969 514.566406 C 820.917969 512.828125 822.328125 511.417969 824.066406 511.417969 C 825.800781 511.417969 827.210938 512.828125 827.210938 514.566406 C 827.210938 516.300781 825.800781 517.710938 824.066406 517.710938 C 822.328125 517.710938 820.917969 516.300781 820.917969 514.566406 " fill-opacity="1" fill-rule="nonzero"/><path fill="#a4bdbe" d="M 802.941406 514.566406 C 802.941406 512.828125 804.347656 511.417969 806.085938 511.417969 C 807.824219 511.417969 809.230469 512.828125 809.230469 514.566406 C 809.230469 516.300781 807.824219 517.710938 806.085938 517.710938 C 804.347656 517.710938 802.941406 516.300781 802.941406 514.566406 " fill-opacity="1" fill-rule="nonzero"/><path fill="#a4bdbe" d="M 784.960938 514.566406 C 784.960938 512.828125 786.371094 511.417969 788.105469 511.417969 C 789.84375 511.417969 791.253906 512.828125 791.253906 514.566406 C 791.253906 516.300781 789.84375 517.710938 788.105469 517.710938 C 786.371094 517.710938 784.960938 516.300781 784.960938 514.566406 " fill-opacity="1" fill-rule="nonzero"/><path fill="#a4bdbe" d="M 766.984375 514.566406 C 766.984375 512.828125 768.390625 511.417969 770.128906 511.417969 C 771.867188 511.417969 773.273438 512.828125 773.273438 514.566406 C 773.273438 516.300781 771.867188 517.710938 770.128906 517.710938 C 768.390625 517.710938 766.984375 516.300781 766.984375 514.566406 " fill-opacity="1" fill-rule="nonzero"/><path fill="#a4bdbe" d="M 946.769531 532.542969 C 946.769531 530.804688 948.175781 529.398438 949.914062 529.398438 C 951.652344 529.398438 953.0625 530.804688 953.0625 532.542969 C 953.0625 534.28125 951.652344 535.691406 949.914062 535.691406 C 948.175781 535.691406 946.769531 534.28125 946.769531 532.542969 " fill-opacity="1" fill-rule="nonzero"/><path fill="#a4bdbe" d="M 928.789062 532.542969 C 928.789062 530.804688 930.199219 529.398438 931.9375 529.398438 C 933.675781 529.398438 935.082031 530.804688 935.082031 532.542969 C 935.082031 534.28125 933.675781 535.691406 931.9375 535.691406 C 930.199219 535.691406 928.789062 534.28125 928.789062 532.542969 " fill-opacity="1" fill-rule="nonzero"/><path fill="#a4bdbe" d="M 910.8125 532.542969 C 910.8125 530.804688 912.21875 529.398438 913.957031 529.398438 C 915.695312 529.398438 917.105469 530.804688 917.105469 532.542969 C 917.105469 534.28125 915.695312 535.691406 913.957031 535.691406 C 912.21875 535.691406 910.8125 534.28125 910.8125 532.542969 " fill-opacity="1" fill-rule="nonzero"/><path fill="#a4bdbe" d="M 892.832031 532.542969 C 892.832031 530.804688 894.242188 529.398438 895.980469 529.398438 C 897.71875 529.398438 899.125 530.804688 899.125 532.542969 C 899.125 534.28125 897.71875 535.691406 895.980469 535.691406 C 894.242188 535.691406 892.832031 534.28125 892.832031 532.542969 " fill-opacity="1" fill-rule="nonzero"/><path fill="#a4bdbe" d="M 874.855469 532.542969 C 874.855469 530.804688 876.261719 529.398438 878 529.398438 C 879.738281 529.398438 881.148438 530.804688 881.148438 532.542969 C 881.148438 534.28125 879.738281 535.691406 878 535.691406 C 876.261719 535.691406 874.855469 534.28125 874.855469 532.542969 " fill-opacity="1" fill-rule="nonzero"/><path fill="#a4bdbe" d="M 856.875 532.542969 C 856.875 530.804688 858.285156 529.398438 860.023438 529.398438 C 861.761719 529.398438 863.167969 530.804688 863.167969 532.542969 C 863.167969 534.28125 861.761719 535.691406 860.023438 535.691406 C 858.285156 535.691406 856.875 534.28125 856.875 532.542969 " fill-opacity="1" fill-rule="nonzero"/><path fill="#a4bdbe" d="M 838.894531 532.542969 C 838.894531 530.804688 840.304688 529.398438 842.042969 529.398438 C 843.78125 529.398438 845.1875 530.804688 845.1875 532.542969 C 845.1875 534.28125 843.78125 535.691406 842.042969 535.691406 C 840.304688 535.691406 838.894531 534.28125 838.894531 532.542969 " fill-opacity="1" fill-rule="nonzero"/><path fill="#a4bdbe" d="M 820.917969 532.542969 C 820.917969 530.804688 822.328125 529.398438 824.066406 529.398438 C 825.800781 529.398438 827.210938 530.804688 827.210938 532.542969 C 827.210938 534.28125 825.800781 535.691406 824.066406 535.691406 C 822.328125 535.691406 820.917969 534.28125 820.917969 532.542969 " fill-opacity="1" fill-rule="nonzero"/><path fill="#a4bdbe" d="M 802.941406 532.542969 C 802.941406 530.804688 804.347656 529.398438 806.085938 529.398438 C 807.824219 529.398438 809.230469 530.804688 809.230469 532.542969 C 809.230469 534.28125 807.824219 535.691406 806.085938 535.691406 C 804.347656 535.691406 802.941406 534.28125 802.941406 532.542969 " fill-opacity="1" fill-rule="nonzero"/><path fill="#a4bdbe" d="M 784.960938 532.542969 C 784.960938 530.804688 786.371094 529.398438 788.105469 529.398438 C 789.84375 529.398438 791.253906 530.804688 791.253906 532.542969 C 791.253906 534.28125 789.84375 535.691406 788.105469 535.691406 C 786.371094 535.691406 784.960938 534.28125 784.960938 532.542969 " fill-opacity="1" fill-rule="nonzero"/><path fill="#a4bdbe" d="M 946.769531 550.523438 C 946.769531 548.785156 948.175781 547.378906 949.914062 547.378906 C 951.652344 547.378906 953.0625 548.785156 953.0625 550.523438 C 953.0625 552.261719 951.652344 553.667969 949.914062 553.667969 C 948.175781 553.667969 946.769531 552.261719 946.769531 550.523438 " fill-opacity="1" fill-rule="nonzero"/><path fill="#a4bdbe" d="M 928.789062 550.523438 C 928.789062 548.785156 930.199219 547.378906 931.9375 547.378906 C 933.675781 547.378906 935.082031 548.785156 935.082031 550.523438 C 935.082031 552.261719 933.675781 553.667969 931.9375 553.667969 C 930.199219 553.667969 928.789062 552.261719 928.789062 550.523438 " fill-opacity="1" fill-rule="nonzero"/><path fill="#a4bdbe" d="M 910.8125 550.523438 C 910.8125 548.785156 912.21875 547.378906 913.957031 547.378906 C 915.695312 547.378906 917.105469 548.785156 917.105469 550.523438 C 917.105469 552.261719 915.695312 553.667969 913.957031 553.667969 C 912.21875 553.667969 910.8125 552.261719 910.8125 550.523438 " fill-opacity="1" fill-rule="nonzero"/><path fill="#a4bdbe" d="M 892.832031 550.523438 C 892.832031 548.785156 894.242188 547.378906 895.980469 547.378906 C 897.71875 547.378906 899.125 548.785156 899.125 550.523438 C 899.125 552.261719 897.71875 553.667969 895.980469 553.667969 C 894.242188 553.667969 892.832031 552.261719 892.832031 550.523438 " fill-opacity="1" fill-rule="nonzero"/><path fill="#a4bdbe" d="M 874.855469 550.523438 C 874.855469 548.785156 876.261719 547.378906 878 547.378906 C 879.738281 547.378906 881.148438 548.785156 881.148438 550.523438 C 881.148438 552.261719 879.738281 553.667969 878 553.667969 C 876.261719 553.667969 874.855469 552.261719 874.855469 550.523438 " fill-opacity="1" fill-rule="nonzero"/><path fill="#a4bdbe" d="M 856.875 550.523438 C 856.875 548.785156 858.285156 547.378906 860.023438 547.378906 C 861.761719 547.378906 863.167969 548.785156 863.167969 550.523438 C 863.167969 552.261719 861.761719 553.667969 860.023438 553.667969 C 858.285156 553.667969 856.875 552.261719 856.875 550.523438 " fill-opacity="1" fill-rule="nonzero"/><path fill="#a4bdbe" d="M 838.894531 550.523438 C 838.894531 548.785156 840.304688 547.378906 842.042969 547.378906 C 843.78125 547.378906 845.1875 548.785156 845.1875 550.523438 C 845.1875 552.261719 843.78125 553.667969 842.042969 553.667969 C 840.304688 553.667969 838.894531 552.261719 838.894531 550.523438 " fill-opacity="1" fill-rule="nonzero"/><path fill="#a4bdbe" d="M 820.917969 550.523438 C 820.917969 548.785156 822.328125 547.378906 824.066406 547.378906 C 825.800781 547.378906 827.210938 548.785156 827.210938 550.523438 C 827.210938 552.261719 825.800781 553.667969 824.066406 553.667969 C 822.328125 553.667969 820.917969 552.261719 820.917969 550.523438 " fill-opacity="1" fill-rule="nonzero"/><path fill="#a4bdbe" d="M 802.941406 550.523438 C 802.941406 548.785156 804.347656 547.378906 806.085938 547.378906 C 807.824219 547.378906 809.230469 548.785156 809.230469 550.523438 C 809.230469 552.261719 807.824219 553.667969 806.085938 553.667969 C 804.347656 553.667969 802.941406 552.261719 802.941406 550.523438 " fill-opacity="1" fill-rule="nonzero"/><path fill="#a4bdbe" d="M 946.769531 568.5 C 946.769531 566.765625 948.175781 565.355469 949.914062 565.355469 C 951.652344 565.355469 953.0625 566.765625 953.0625 568.5 C 953.0625 570.238281 951.652344 571.648438 949.914062 571.648438 C 948.175781 571.648438 946.769531 570.238281 946.769531 568.5 " fill-opacity="1" fill-rule="nonzero"/><path fill="#a4bdbe" d="M 928.789062 568.5 C 928.789062 566.765625 930.199219 565.355469 931.9375 565.355469 C 933.675781 565.355469 935.082031 566.765625 935.082031 568.5 C 935.082031 570.238281 933.675781 571.648438 931.9375 571.648438 C 930.199219 571.648438 928.789062 570.238281 928.789062 568.5 " fill-opacity="1" fill-rule="nonzero"/><path fill="#a4bdbe" d="M 910.8125 568.5 C 910.8125 566.765625 912.21875 565.355469 913.957031 565.355469 C 915.695312 565.355469 917.105469 566.765625 917.105469 568.5 C 917.105469 570.238281 915.695312 571.648438 913.957031 571.648438 C 912.21875 571.648438 910.8125 570.238281 910.8125 568.5 " fill-opacity="1" fill-rule="nonzero"/><path fill="#a4bdbe" d="M 892.832031 568.5 C 892.832031 566.765625 894.242188 565.355469 895.980469 565.355469 C 897.71875 565.355469 899.125 566.765625 899.125 568.5 C 899.125 570.238281 897.71875 571.648438 895.980469 571.648438 C 894.242188 571.648438 892.832031 570.238281 892.832031 568.5 " fill-opacity="1" fill-rule="nonzero"/><path fill="#a4bdbe" d="M 874.855469 568.5 C 874.855469 566.765625 876.261719 565.355469 878 565.355469 C 879.738281 565.355469 881.148438 566.765625 881.148438 568.5 C 881.148438 570.238281 879.738281 571.648438 878 571.648438 C 876.261719 571.648438 874.855469 570.238281 874.855469 568.5 " fill-opacity="1" fill-rule="nonzero"/><path fill="#a4bdbe" d="M 856.875 568.5 C 856.875 566.765625 858.285156 565.355469 860.023438 565.355469 C 861.761719 565.355469 863.167969 566.765625 863.167969 568.5 C 863.167969 570.238281 861.761719 571.648438 860.023438 571.648438 C 858.285156 571.648438 856.875 570.238281 856.875 568.5 " fill-opacity="1" fill-rule="nonzero"/><path fill="#a4bdbe" d="M 838.894531 568.5 C 838.894531 566.765625 840.304688 565.355469 842.042969 565.355469 C 843.78125 565.355469 845.1875 566.765625 845.1875 568.5 C 845.1875 570.238281 843.78125 571.648438 842.042969 571.648438 C 840.304688 571.648438 838.894531 570.238281 838.894531 568.5 " fill-opacity="1" fill-rule="nonzero"/><path fill="#a4bdbe" d="M 820.917969 568.5 C 820.917969 566.765625 822.328125 565.355469 824.066406 565.355469 C 825.800781 565.355469 827.210938 566.765625 827.210938 568.5 C 827.210938 570.238281 825.800781 571.648438 824.066406 571.648438 C 822.328125 571.648438 820.917969 570.238281 820.917969 568.5 " fill-opacity="1" fill-rule="nonzero"/><path fill="#a4bdbe" d="M 946.769531 586.480469 C 946.769531 584.742188 948.175781 583.332031 949.914062 583.332031 C 951.652344 583.332031 953.0625 584.742188 953.0625 586.480469 C 953.0625 588.21875 951.652344 589.625 949.914062 589.625 C 948.175781 589.625 946.769531 588.21875 946.769531 586.480469 " fill-opacity="1" fill-rule="nonzero"/><path fill="#a4bdbe" d="M 928.789062 586.480469 C 928.789062 584.742188 930.199219 583.332031 931.9375 583.332031 C 933.675781 583.332031 935.082031 584.742188 935.082031 586.480469 C 935.082031 588.21875 933.675781 589.625 931.9375 589.625 C 930.199219 589.625 928.789062 588.21875 928.789062 586.480469 " fill-opacity="1" fill-rule="nonzero"/><path fill="#a4bdbe" d="M 910.8125 586.480469 C 910.8125 584.742188 912.21875 583.332031 913.957031 583.332031 C 915.695312 583.332031 917.105469 584.742188 917.105469 586.480469 C 917.105469 588.21875 915.695312 589.625 913.957031 589.625 C 912.21875 589.625 910.8125 588.21875 910.8125 586.480469 " fill-opacity="1" fill-rule="nonzero"/><path fill="#a4bdbe" d="M 892.832031 586.480469 C 892.832031 584.742188 894.242188 583.332031 895.980469 583.332031 C 897.71875 583.332031 899.125 584.742188 899.125 586.480469 C 899.125 588.21875 897.71875 589.625 895.980469 589.625 C 894.242188 589.625 892.832031 588.21875 892.832031 586.480469 " fill-opacity="1" fill-rule="nonzero"/><path fill="#a4bdbe" d="M 874.855469 586.480469 C 874.855469 584.742188 876.261719 583.332031 878 583.332031 C 879.738281 583.332031 881.148438 584.742188 881.148438 586.480469 C 881.148438 588.21875 879.738281 589.625 878 589.625 C 876.261719 589.625 874.855469 588.21875 874.855469 586.480469 " fill-opacity="1" fill-rule="nonzero"/><path fill="#a4bdbe" d="M 856.875 586.480469 C 856.875 584.742188 858.285156 583.332031 860.023438 583.332031 C 861.761719 583.332031 863.167969 584.742188 863.167969 586.480469 C 863.167969 588.21875 861.761719 589.625 860.023438 589.625 C 858.285156 589.625 856.875 588.21875 856.875 586.480469 " fill-opacity="1" fill-rule="nonzero"/><path fill="#a4bdbe" d="M 838.894531 586.480469 C 838.894531 584.742188 840.304688 583.332031 842.042969 583.332031 C 843.78125 583.332031 845.1875 584.742188 845.1875 586.480469 C 845.1875 588.21875 843.78125 589.625 842.042969 589.625 C 840.304688 589.625 838.894531 588.21875 838.894531 586.480469 " fill-opacity="1" fill-rule="nonzero"/><g clip-path="url(#d453280762)"><path fill="#d5b9b1" d="M 902.804688 279.964844 L 934.144531 279.964844 L 899.925781 220.582031 L 865.707031 279.964844 L 897.046875 279.964844 L 861.347656 341.859375 L 898.472656 341.859375 L 865.679688 398.738281 L 897.019531 398.738281 L 861.347656 460.65625 L 938.476562 460.65625 L 902.804688 398.761719 L 934.144531 398.761719 L 901.351562 341.882812 L 938.476562 341.882812 Z M 870.035156 455.640625 L 899.925781 403.777344 L 929.8125 455.640625 Z M 899.925781 284.980469 L 929.8125 336.84375 L 870.035156 336.84375 Z M 899.925781 284.980469 " fill-opacity="1" fill-rule="nonzero"/></g><path fill="#457373" d="M 987.414062 35.503906 L 864.835938 -87.074219 L 866.429688 -88.664062 L 989.007812 33.914062 L 987.414062 35.503906 " fill-opacity="1" fill-rule="nonzero"/><path fill="#457373" d="M 983.074219 64.253906 L 836.085938 -82.730469 L 837.679688 -84.324219 L 984.664062 62.660156 L 983.074219 64.253906 " fill-opacity="1" fill-rule="nonzero"/><path fill="#457373" d="M 973.644531 87.917969 L 812.425781 -73.304688 L 814.015625 -74.894531 L 975.234375 86.324219 L 973.644531 87.917969 " fill-opacity="1" fill-rule="nonzero"/><path fill="#457373" d="M 986.652344 18.195312 L 882.144531 -86.3125 L 883.738281 -87.902344 L 988.242188 16.605469 L 986.652344 18.195312 " fill-opacity="1" fill-rule="nonzero"/><path fill="#457373" d="M 986.019531 50.65625 L 849.6875 -85.679688 L 851.277344 -87.269531 L 987.613281 49.0625 L 986.019531 50.65625 " fill-opacity="1" fill-rule="nonzero"/><path fill="#457373" d="M 978.886719 76.613281 L 823.726562 -78.546875 L 825.316406 -80.136719 L 980.476562 75.023438 L 978.886719 76.613281 " fill-opacity="1" fill-rule="nonzero"/><path fill="#457373" d="M 967.457031 98.277344 L 802.0625 -67.117188 L 803.65625 -68.707031 L 969.050781 96.683594 L 967.457031 98.277344 " fill-opacity="1" fill-rule="nonzero"/><path fill="#457373" d="M 960.410156 107.773438 L 792.566406 -60.066406 L 794.160156 -61.660156 L 962 106.183594 L 960.410156 107.773438 " fill-opacity="1" fill-rule="nonzero"/><path fill="#457373" d="M 952.539062 116.449219 L 783.890625 -52.195312 L 785.484375 -53.789062 L 954.132812 114.859375 L 952.539062 116.449219 " fill-opacity="1" fill-rule="nonzero"/><path fill="#457373" d="M 943.863281 124.320312 L 776.023438 -43.519531 L 777.613281 -45.113281 L 945.453125 122.726562 L 943.863281 124.320312 " fill-opacity="1" fill-rule="nonzero"/><path fill="#457373" d="M 934.367188 131.367188 L 768.972656 -34.027344 L 770.566406 -35.617188 L 935.957031 129.777344 L 934.367188 131.367188 " fill-opacity="1" fill-rule="nonzero"/><path fill="#457373" d="M 924.007812 137.554688 L 762.789062 -23.664062 L 764.378906 -25.257812 L 925.597656 135.964844 L 924.007812 137.554688 " fill-opacity="1" fill-rule="nonzero"/><path fill="#457373" d="M 912.703125 142.796875 L 757.542969 -12.359375 L 759.136719 -13.953125 L 914.292969 141.207031 L 912.703125 142.796875 " fill-opacity="1" fill-rule="nonzero"/><path fill="#457373" d="M 900.34375 146.984375 L 753.359375 0 L 754.949219 -1.59375 L 901.933594 145.390625 L 900.34375 146.984375 " fill-opacity="1" fill-rule="nonzero"/><path fill="#457373" d="M 886.742188 149.929688 L 750.410156 13.597656 L 752.003906 12.007812 L 888.335938 148.339844 L 886.742188 149.929688 " fill-opacity="1" fill-rule="nonzero"/><g clip-path="url(#28b6433e3a)"><path fill="#457373" d="M 871.59375 151.324219 L 749.015625 28.746094 L 750.609375 27.15625 L 873.183594 149.734375 L 871.59375 151.324219 " fill-opacity="1" fill-rule="nonzero"/></g><g clip-path="url(#f98e7dc456)"><path fill="#457373" d="M 854.285156 150.5625 L 749.777344 46.054688 L 751.371094 44.464844 L 855.878906 148.972656 L 854.285156 150.5625 " fill-opacity="1" fill-rule="nonzero"/></g><path fill="#457373" d="M 833.363281 146.191406 L 754.152344 66.976562 L 755.746094 65.382812 L 834.957031 144.597656 L 833.363281 146.191406 " fill-opacity="1" fill-rule="nonzero"/><path fill="#457373" d="M 801.859375 131.230469 L 769.109375 98.480469 L 770.703125 96.890625 L 803.453125 129.640625 L 801.859375 131.230469 " fill-opacity="1" fill-rule="nonzero"/><g clip-path="url(#d8353ae29e)"><path fill="#457373" d="M 91.285156 471.925781 C 91.285156 473.417969 91.25 474.910156 91.175781 476.398438 C 91.101562 477.886719 90.992188 479.375 90.847656 480.859375 C 90.699219 482.34375 90.519531 483.824219 90.300781 485.296875 C 90.082031 486.773438 89.824219 488.242188 89.535156 489.707031 C 89.242188 491.167969 88.917969 492.621094 88.554688 494.070312 C 88.191406 495.515625 87.796875 496.953125 87.363281 498.378906 C 86.929688 499.808594 86.460938 501.222656 85.960938 502.625 C 85.457031 504.03125 84.921875 505.421875 84.347656 506.800781 C 83.777344 508.175781 83.175781 509.539062 82.535156 510.886719 C 81.898438 512.238281 81.230469 513.570312 80.527344 514.882812 C 79.824219 516.199219 79.089844 517.496094 78.320312 518.773438 C 77.554688 520.054688 76.757812 521.3125 75.929688 522.554688 C 75.101562 523.792969 74.242188 525.011719 73.351562 526.210938 C 72.464844 527.410156 71.546875 528.582031 70.601562 529.738281 C 69.65625 530.890625 68.679688 532.019531 67.679688 533.125 C 66.679688 534.226562 65.652344 535.308594 64.597656 536.363281 C 63.542969 537.417969 62.460938 538.445312 61.355469 539.445312 C 60.25 540.449219 59.121094 541.421875 57.96875 542.367188 C 56.816406 543.3125 55.640625 544.230469 54.445312 545.121094 C 53.246094 546.007812 52.027344 546.867188 50.789062 547.695312 C 49.546875 548.523438 48.289062 549.320312 47.007812 550.089844 C 45.730469 550.855469 44.433594 551.589844 43.117188 552.292969 C 41.800781 552.996094 40.46875 553.664062 39.121094 554.304688 C 37.773438 554.941406 36.410156 555.546875 35.03125 556.117188 C 33.65625 556.6875 32.265625 557.222656 30.859375 557.726562 C 29.457031 558.226562 28.039062 558.695312 26.613281 559.128906 C 25.1875 559.5625 23.75 559.960938 22.300781 560.320312 C 20.855469 560.683594 19.402344 561.011719 17.9375 561.300781 C 16.476562 561.59375 15.007812 561.847656 13.53125 562.066406 C 12.054688 562.285156 10.578125 562.46875 9.09375 562.613281 C 7.609375 562.761719 6.121094 562.871094 4.632812 562.941406 C 3.144531 563.015625 1.652344 563.050781 0.160156 563.050781 C -1.332031 563.050781 -2.820312 563.015625 -4.308594 562.941406 C -5.800781 562.871094 -7.285156 562.761719 -8.769531 562.613281 C -10.253906 562.46875 -11.734375 562.285156 -13.210938 562.066406 C -14.683594 561.847656 -16.152344 561.59375 -17.617188 561.300781 C -19.078125 561.011719 -20.535156 560.683594 -21.980469 560.320312 C -23.425781 559.960938 -24.863281 559.5625 -26.292969 559.128906 C -27.71875 558.695312 -29.132812 558.226562 -30.539062 557.726562 C -31.941406 557.222656 -33.332031 556.6875 -34.710938 556.117188 C -36.089844 555.546875 -37.453125 554.941406 -38.800781 554.304688 C -40.148438 553.664062 -41.480469 552.996094 -42.796875 552.292969 C -44.109375 551.589844 -45.40625 550.855469 -46.6875 550.089844 C -47.964844 549.320312 -49.226562 548.523438 -50.464844 547.695312 C -51.707031 546.867188 -52.925781 546.007812 -54.121094 545.121094 C -55.320312 544.230469 -56.496094 543.3125 -57.648438 542.367188 C -58.800781 541.421875 -59.929688 540.449219 -61.035156 539.445312 C -62.140625 538.445312 -63.21875 537.417969 -64.273438 536.363281 C -65.328125 535.308594 -66.355469 534.226562 -67.359375 533.125 C -68.359375 532.019531 -69.332031 530.890625 -70.28125 529.738281 C -71.226562 528.582031 -72.144531 527.410156 -73.03125 526.210938 C -73.917969 525.011719 -74.777344 523.792969 -75.605469 522.554688 C -76.433594 521.3125 -77.234375 520.054688 -78 518.773438 C -78.765625 517.496094 -79.5 516.199219 -80.203125 514.882812 C -80.90625 513.570312 -81.578125 512.238281 -82.214844 510.886719 C -82.851562 509.539062 -83.457031 508.175781 -84.027344 506.800781 C -84.597656 505.421875 -85.136719 504.03125 -85.636719 502.625 C -86.140625 501.222656 -86.605469 499.808594 -87.039062 498.378906 C -87.472656 496.953125 -87.871094 495.515625 -88.234375 494.070312 C -88.59375 492.621094 -88.921875 491.167969 -89.214844 489.707031 C -89.503906 488.242188 -89.757812 486.773438 -89.976562 485.296875 C -90.195312 483.824219 -90.378906 482.34375 -90.523438 480.859375 C -90.671875 479.375 -90.78125 477.886719 -90.855469 476.398438 C -90.925781 474.910156 -90.964844 473.417969 -90.964844 471.925781 C -90.964844 470.4375 -90.925781 468.945312 -90.855469 467.457031 C -90.78125 465.964844 -90.671875 464.480469 -90.523438 462.996094 C -90.378906 461.511719 -90.195312 460.03125 -89.976562 458.558594 C -89.757812 457.082031 -89.503906 455.613281 -89.214844 454.148438 C -88.921875 452.6875 -88.59375 451.234375 -88.234375 449.785156 C -87.871094 448.339844 -87.472656 446.902344 -87.039062 445.476562 C -86.605469 444.046875 -86.140625 442.632812 -85.636719 441.226562 C -85.136719 439.824219 -84.597656 438.433594 -84.027344 437.054688 C -83.457031 435.679688 -82.851562 434.316406 -82.214844 432.964844 C -81.578125 431.617188 -80.90625 430.285156 -80.203125 428.972656 C -79.5 427.65625 -78.765625 426.359375 -78 425.078125 C -77.234375 423.800781 -76.433594 422.542969 -75.605469 421.300781 C -74.777344 420.0625 -73.917969 418.84375 -73.03125 417.644531 C -72.144531 416.445312 -71.226562 415.269531 -70.28125 414.117188 C -69.332031 412.964844 -68.359375 411.835938 -67.359375 410.730469 C -66.355469 409.625 -65.328125 408.546875 -64.273438 407.492188 C -63.21875 406.4375 -62.140625 405.410156 -61.035156 404.410156 C -59.929688 403.40625 -58.800781 402.433594 -57.648438 401.488281 C -56.496094 400.539062 -55.320312 399.625 -54.121094 398.734375 C -52.925781 397.847656 -51.707031 396.988281 -50.464844 396.160156 C -49.226562 395.332031 -47.964844 394.535156 -46.6875 393.765625 C -45.40625 393 -44.109375 392.265625 -42.796875 391.5625 C -41.480469 390.859375 -40.148438 390.1875 -38.800781 389.550781 C -37.453125 388.914062 -36.089844 388.308594 -34.710938 387.738281 C -33.332031 387.167969 -31.941406 386.632812 -30.539062 386.128906 C -29.132812 385.628906 -27.71875 385.160156 -26.292969 384.726562 C -24.863281 384.292969 -23.425781 383.894531 -21.980469 383.535156 C -20.535156 383.171875 -19.078125 382.84375 -17.617188 382.554688 C -16.152344 382.261719 -14.683594 382.007812 -13.210938 381.789062 C -11.734375 381.570312 -10.253906 381.386719 -8.769531 381.242188 C -7.285156 381.09375 -5.800781 380.984375 -4.308594 380.914062 C -2.820312 380.839844 -1.332031 380.800781 0.160156 380.800781 C 1.652344 380.800781 3.144531 380.839844 4.632812 380.914062 C 6.121094 380.984375 7.609375 381.09375 9.09375 381.242188 C 10.578125 381.386719 12.054688 381.570312 13.53125 381.789062 C 15.007812 382.007812 16.476562 382.261719 17.9375 382.554688 C 19.402344 382.84375 20.855469 383.171875 22.300781 383.535156 C 23.75 383.894531 25.1875 384.292969 26.613281 384.726562 C 28.039062 385.160156 29.457031 385.628906 30.859375 386.128906 C 32.265625 386.632812 33.65625 387.167969 35.03125 387.738281 C 36.410156 388.308594 37.773438 388.914062 39.121094 389.550781 C 40.46875 390.1875 41.800781 390.859375 43.117188 391.5625 C 44.433594 392.265625 45.730469 393 47.007812 393.765625 C 48.289062 394.535156 49.546875 395.332031 50.789062 396.160156 C 52.027344 396.988281 53.246094 397.847656 54.445312 398.734375 C 55.640625 399.625 56.816406 400.539062 57.96875 401.488281 C 59.121094 402.433594 60.25 403.40625 61.355469 404.410156 C 62.460938 405.410156 63.542969 406.4375 64.597656 407.492188 C 65.652344 408.546875 66.679688 409.625 67.679688 410.730469 C 68.679688 411.835938 69.65625 412.964844 70.601562 414.117188 C 71.546875 415.269531 72.464844 416.445312 73.351562 417.644531 C 74.242188 418.84375 75.101562 420.0625 75.929688 421.300781 C 76.757812 422.542969 77.554688 423.800781 78.320312 425.078125 C 79.089844 426.359375 79.824219 427.65625 80.527344 428.972656 C 81.230469 430.285156 81.898438 431.617188 82.535156 432.964844 C 83.175781 434.316406 83.777344 435.679688 84.347656 437.054688 C 84.921875 438.433594 85.457031 439.824219 85.960938 441.226562 C 86.460938 442.632812 86.929688 444.046875 87.363281 445.476562 C 87.796875 446.902344 88.191406 448.339844 88.554688 449.785156 C 88.917969 451.234375 89.242188 452.6875 89.535156 454.148438 C 89.824219 455.613281 90.082031 457.082031 90.300781 458.558594 C 90.519531 460.03125 90.699219 461.511719 90.847656 462.996094 C 90.992188 464.480469 91.101562 465.964844 91.175781 467.457031 C 91.25 468.945312 91.285156 470.4375 91.285156 471.925781 Z M 91.285156 471.925781 " fill-opacity="1" fill-rule="nonzero"/></g><g clip-path="url(#979cc9be9e)"><path fill="#d5b9b1" d="M 123.496094 571.492188 C 117.257812 571.492188 114.054688 568.058594 111.480469 565.300781 C 108.894531 562.53125 107.269531 560.960938 103.847656 560.960938 C 100.429688 560.960938 98.800781 562.53125 96.21875 565.300781 C 93.644531 568.058594 90.441406 571.492188 84.203125 571.492188 C 77.964844 571.492188 74.761719 568.058594 72.1875 565.300781 C 69.601562 562.53125 67.972656 560.960938 64.554688 560.960938 C 61.136719 560.960938 59.507812 562.53125 56.921875 565.300781 C 54.351562 568.058594 51.144531 571.492188 44.90625 571.492188 C 38.667969 571.492188 35.464844 568.058594 32.890625 565.300781 C 30.304688 562.53125 28.675781 560.960938 25.257812 560.960938 C 21.835938 560.960938 20.207031 562.53125 17.625 565.300781 C 15.050781 568.058594 11.84375 571.492188 5.605469 571.492188 C -0.632812 571.492188 -3.835938 568.058594 -6.414062 565.300781 C -8.996094 562.53125 -10.625 560.960938 -14.042969 560.960938 C -17.464844 560.960938 -19.09375 562.53125 -21.679688 565.300781 C -24.25 568.058594 -27.457031 571.492188 -33.695312 571.492188 C -39.933594 571.492188 -43.140625 568.058594 -45.714844 565.300781 C -48.300781 562.53125 -49.929688 560.960938 -53.351562 560.960938 C -56.769531 560.960938 -58.398438 562.53125 -60.984375 565.300781 C -63.558594 568.058594 -66.765625 571.492188 -73.003906 571.492188 C -74.601562 571.492188 -75.898438 570.292969 -75.898438 568.816406 C -75.898438 567.339844 -74.601562 566.140625 -73.003906 566.140625 C -69.582031 566.140625 -67.953125 564.574219 -65.371094 561.804688 C -62.792969 559.042969 -59.589844 555.609375 -53.351562 555.609375 C -47.109375 555.609375 -43.90625 559.042969 -41.332031 561.804688 C -38.746094 564.574219 -37.117188 566.140625 -33.695312 566.140625 C -30.277344 566.140625 -28.648438 564.574219 -26.0625 561.804688 C -23.488281 559.042969 -20.285156 555.609375 -14.042969 555.609375 C -7.804688 555.609375 -4.601562 559.042969 -2.027344 561.804688 C 0.558594 564.574219 2.1875 566.140625 5.605469 566.140625 C 9.027344 566.140625 10.65625 564.574219 13.238281 561.804688 C 15.8125 559.042969 19.019531 555.609375 25.257812 555.609375 C 31.496094 555.609375 34.699219 559.042969 37.273438 561.804688 C 39.859375 564.574219 41.488281 566.140625 44.90625 566.140625 C 48.324219 566.140625 49.957031 564.574219 52.539062 561.804688 C 55.113281 559.042969 58.316406 555.609375 64.554688 555.609375 C 70.792969 555.609375 73.996094 559.042969 76.570312 561.804688 C 79.15625 564.574219 80.785156 566.140625 84.203125 566.140625 C 87.621094 566.140625 89.25 564.574219 91.832031 561.804688 C 94.40625 559.042969 97.609375 555.609375 103.847656 555.609375 C 110.085938 555.609375 113.292969 559.042969 115.867188 561.804688 C 118.449219 564.574219 120.078125 566.140625 123.496094 566.140625 C 125.097656 566.140625 126.394531 567.339844 126.394531 568.816406 C 126.394531 570.292969 125.097656 571.492188 123.496094 571.492188 " fill-opacity="1" fill-rule="nonzero"/></g><g clip-path="url(#d4d7781a58)"><path fill="#d5b9b1" d="M 123.496094 547.933594 C 117.257812 547.933594 114.054688 544.496094 111.480469 541.738281 C 108.894531 538.96875 107.269531 537.402344 103.847656 537.402344 C 100.429688 537.402344 98.800781 538.96875 96.21875 541.738281 C 93.644531 544.496094 90.441406 547.933594 84.203125 547.933594 C 77.964844 547.933594 74.761719 544.496094 72.1875 541.738281 C 69.601562 538.96875 67.972656 537.402344 64.554688 537.402344 C 61.136719 537.402344 59.507812 538.96875 56.921875 541.738281 C 54.351562 544.496094 51.144531 547.933594 44.90625 547.933594 C 38.667969 547.933594 35.464844 544.5 32.890625 541.738281 C 30.304688 538.96875 28.675781 537.402344 25.257812 537.402344 C 21.835938 537.402344 20.207031 538.96875 17.625 541.738281 C 15.050781 544.496094 11.84375 547.933594 5.605469 547.933594 C -0.632812 547.933594 -3.835938 544.496094 -6.414062 541.738281 C -8.996094 538.96875 -10.625 537.402344 -14.042969 537.402344 C -17.464844 537.402344 -19.09375 538.96875 -21.679688 541.738281 C -24.25 544.5 -27.457031 547.933594 -33.695312 547.933594 C -39.933594 547.933594 -43.140625 544.5 -45.714844 541.738281 C -48.300781 538.96875 -49.929688 537.402344 -53.351562 537.402344 C -56.769531 537.402344 -58.398438 538.96875 -60.984375 541.738281 C -63.558594 544.5 -66.765625 547.933594 -73.003906 547.933594 C -74.601562 547.933594 -75.898438 546.734375 -75.898438 545.253906 C -75.898438 543.777344 -74.601562 542.578125 -73.003906 542.578125 C -69.582031 542.578125 -67.953125 541.011719 -65.371094 538.242188 C -62.792969 535.484375 -59.589844 532.046875 -53.351562 532.046875 C -47.109375 532.046875 -43.90625 535.484375 -41.332031 538.242188 C -38.746094 541.011719 -37.117188 542.578125 -33.695312 542.578125 C -30.277344 542.578125 -28.648438 541.011719 -26.0625 538.242188 C -23.488281 535.484375 -20.285156 532.046875 -14.042969 532.046875 C -7.804688 532.046875 -4.601562 535.484375 -2.027344 538.242188 C 0.558594 541.011719 2.1875 542.578125 5.605469 542.578125 C 9.027344 542.578125 10.65625 541.011719 13.238281 538.242188 C 15.8125 535.484375 19.019531 532.046875 25.257812 532.046875 C 31.496094 532.046875 34.699219 535.484375 37.273438 538.242188 C 39.859375 541.011719 41.488281 542.578125 44.90625 542.578125 C 48.324219 542.578125 49.957031 541.011719 52.539062 538.242188 C 55.113281 535.484375 58.316406 532.046875 64.554688 532.046875 C 70.792969 532.046875 73.996094 535.484375 76.570312 538.242188 C 79.15625 541.011719 80.785156 542.578125 84.203125 542.578125 C 87.621094 542.578125 89.25 541.011719 91.832031 538.242188 C 94.40625 535.484375 97.609375 532.046875 103.847656 532.046875 C 110.085938 532.046875 113.292969 535.484375 115.867188 538.242188 C 118.449219 541.011719 120.078125 542.578125 123.496094 542.578125 C 125.097656 542.578125 126.394531 543.777344 126.394531 545.253906 C 126.394531 546.734375 125.097656 547.933594 123.496094 547.933594 " fill-opacity="1" fill-rule="nonzero"/></g><g clip-path="url(#0f09c00f3d)"><path fill="#d5b9b1" d="M 123.496094 524.371094 C 117.257812 524.371094 114.054688 520.9375 111.480469 518.175781 C 108.894531 515.40625 107.269531 513.839844 103.847656 513.839844 C 100.429688 513.839844 98.800781 515.40625 96.21875 518.175781 C 93.644531 520.9375 90.441406 524.371094 84.203125 524.371094 C 77.964844 524.371094 74.761719 520.9375 72.1875 518.175781 C 69.601562 515.40625 67.972656 513.839844 64.554688 513.839844 C 61.136719 513.839844 59.507812 515.40625 56.921875 518.175781 C 54.351562 520.9375 51.144531 524.371094 44.90625 524.371094 C 38.667969 524.371094 35.464844 520.9375 32.890625 518.175781 C 30.304688 515.40625 28.675781 513.839844 25.257812 513.839844 C 21.835938 513.839844 20.207031 515.40625 17.625 518.175781 C 15.050781 520.9375 11.84375 524.371094 5.605469 524.371094 C -0.632812 524.371094 -3.835938 520.9375 -6.414062 518.175781 C -8.996094 515.40625 -10.625 513.839844 -14.042969 513.839844 C -17.464844 513.839844 -19.09375 515.40625 -21.679688 518.175781 C -24.25 520.9375 -27.457031 524.371094 -33.695312 524.371094 C -39.933594 524.371094 -43.140625 520.9375 -45.714844 518.179688 C -48.300781 515.40625 -49.929688 513.839844 -53.351562 513.839844 C -56.769531 513.839844 -58.398438 515.40625 -60.984375 518.179688 C -63.558594 520.9375 -66.765625 524.371094 -73.003906 524.371094 C -74.601562 524.371094 -75.898438 523.171875 -75.898438 521.695312 C -75.898438 520.214844 -74.601562 519.019531 -73.003906 519.019531 C -69.582031 519.019531 -67.953125 517.449219 -65.371094 514.679688 C -62.792969 511.921875 -59.589844 508.488281 -53.351562 508.488281 C -47.109375 508.488281 -43.90625 511.921875 -41.332031 514.679688 C -38.746094 517.449219 -37.117188 519.019531 -33.695312 519.019531 C -30.277344 519.019531 -28.648438 517.449219 -26.0625 514.679688 C -23.488281 511.921875 -20.285156 508.488281 -14.042969 508.488281 C -7.804688 508.488281 -4.601562 511.921875 -2.027344 514.679688 C 0.558594 517.449219 2.1875 519.019531 5.605469 519.019531 C 9.027344 519.019531 10.65625 517.449219 13.238281 514.679688 C 15.8125 511.921875 19.019531 508.488281 25.257812 508.488281 C 31.496094 508.488281 34.699219 511.921875 37.273438 514.679688 C 39.859375 517.449219 41.488281 519.019531 44.90625 519.019531 C 48.324219 519.019531 49.957031 517.449219 52.539062 514.679688 C 55.113281 511.921875 58.316406 508.488281 64.554688 508.488281 C 70.792969 508.488281 73.996094 511.921875 76.570312 514.679688 C 79.15625 517.449219 80.785156 519.019531 84.203125 519.019531 C 87.621094 519.019531 89.25 517.449219 91.832031 514.679688 C 94.40625 511.921875 97.609375 508.488281 103.847656 508.488281 C 110.085938 508.488281 113.292969 511.921875 115.867188 514.679688 C 118.449219 517.449219 120.078125 519.019531 123.496094 519.019531 C 125.097656 519.019531 126.394531 520.214844 126.394531 521.695312 C 126.394531 523.171875 125.097656 524.371094 123.496094 524.371094 " fill-opacity="1" fill-rule="nonzero"/></g><g clip-path="url(#cb802051d0)"><path fill="#000000" d="M 60.136719 662.394531 C 10.113281 662.394531 -30.613281 621.671875 -30.613281 571.644531 C -30.613281 521.621094 10.113281 480.894531 60.136719 480.894531 C 110.160156 480.894531 150.886719 521.621094 150.886719 571.644531 C 150.886719 621.671875 110.160156 662.394531 60.136719 662.394531 Z M 60.136719 482.238281 C 10.828125 482.238281 -29.273438 522.335938 -29.273438 571.644531 C -29.273438 620.953125 10.828125 661.054688 60.136719 661.054688 C 109.445312 661.054688 149.542969 620.953125 149.542969 571.644531 C 149.542969 522.335938 109.445312 482.238281 60.136719 482.238281 Z M 60.136719 482.238281 " fill-opacity="1" fill-rule="nonzero"/></g><path fill="#a4bdbe" d="M 635.195312 59.207031 C 621.300781 68.988281 603.332031 72.144531 586.804688 74.210938 C 577.675781 75.351562 568.320312 75.78125 559.203125 74.28125 C 550.144531 72.789062 542.007812 68.929688 533.882812 64.828125 C 521.488281 58.574219 507.8125 51.734375 493.757812 56.769531 C 479.722656 61.800781 470.691406 74.882812 458.210938 82.445312 C 454.605469 84.589844 450.832031 86.371094 446.890625 87.789062 C 442.945312 89.207031 438.902344 90.238281 434.761719 90.878906 C 430.617188 91.519531 426.453125 91.761719 422.265625 91.605469 C 418.078125 91.445312 413.941406 90.890625 409.859375 89.9375 C 401.324219 87.917969 394.082031 83.707031 386.421875 79.632812 C 379.910156 76.167969 373.105469 73.675781 365.625 74.242188 C 351.003906 75.355469 338.8125 85.132812 325.460938 90.15625 C 317.835938 93.023438 310.113281 94.121094 302.167969 91.867188 C 299.1875 91.019531 288.3125 88.453125 282.230469 78.375 C 275.886719 67.863281 279 56.359375 280.183594 51.976562 C 281.539062 47.253906 283.582031 42.851562 286.316406 38.769531 C 287.628906 36.828125 289.082031 35 290.679688 33.289062 C 294.613281 29.058594 299.179688 25.460938 303.019531 21.140625 C 311.746094 11.324219 314.40625 -0.917969 312.261719 -13.660156 C 310.984375 -21.226562 311.136719 -27.664062 315.230469 -34.445312 C 317.101562 -37.410156 319.308594 -40.09375 321.851562 -42.503906 C 324.394531 -44.914062 327.191406 -46.972656 330.25 -48.679688 C 343.328125 -56.308594 359.578125 -58.511719 374.449219 -58.738281 C 384.273438 -58.886719 393.980469 -57.898438 403.570312 -55.773438 C 412.136719 -53.882812 420.535156 -51.296875 429.152344 -49.640625 C 445.074219 -46.574219 459.6875 -48.222656 472.355469 -58.917969 C 483.875 -68.640625 493.066406 -81.796875 508.703125 -84.984375 C 526.507812 -88.609375 544.214844 -80.058594 556.53125 -67.621094 C 568.304688 -55.730469 575.089844 -40.847656 583.363281 -26.582031 C 587.011719 -20.292969 591.277344 -14.179688 597.046875 -9.65625 C 602.09375 -5.699219 608.042969 -3.433594 614.179688 -1.800781 C 627.835938 1.835938 645.453125 3.4375 650.851562 18.988281 C 656.097656 34.085938 647.515625 50.539062 635.195312 59.207031 Z M 635.195312 59.207031 " fill-opacity="1" fill-rule="nonzero"/><path fill="#457373" d="M 650.777344 14.011719 C 641.316406 2.742188 625.242188 2.066406 612.582031 -3.496094 C 596.042969 -10.761719 590.464844 -28.003906 583.109375 -43.058594 C 575.851562 -57.921875 566.316406 -72.644531 552.234375 -81.875 C 539.394531 -90.292969 522.5 -94.023438 507.9375 -87.917969 C 493.105469 -81.699219 483.953125 -67.007812 469.285156 -60.539062 C 450.457031 -52.230469 429.976562 -62.253906 411.753906 -67.429688 C 402.640625 -70.027344 393.351562 -71.59375 383.890625 -72.128906 C 374.425781 -72.660156 365.023438 -72.148438 355.671875 -70.589844 C 343.367188 -68.507812 330.933594 -63.5625 322.652344 -53.847656 C 318.320312 -48.765625 315.355469 -42.632812 315.277344 -35.875 C 315.199219 -29.285156 316.9375 -22.957031 315.769531 -16.347656 C 315.039062 -12.5 313.75 -8.851562 311.902344 -5.402344 C 310.054688 -1.953125 307.734375 1.140625 304.9375 3.878906 C 300.488281 8.328125 295.238281 11.882812 290.804688 16.355469 C 285.980469 21.390625 282.402344 27.199219 280.066406 33.773438 C 278.277344 38.984375 275.382812 47.414062 278.625 56.890625 C 281.332031 64.796875 286.859375 69.308594 289.765625 71.578125 C 292.511719 73.75 295.488281 75.527344 298.699219 76.910156 C 301.910156 78.292969 305.246094 79.238281 308.707031 79.742188 C 316.210938 80.75 323.679688 78.691406 330.652344 76.054688 C 346.046875 70.226562 362.210938 59.605469 378.976562 66.960938 C 387.078125 70.515625 393.867188 76.445312 402 79.980469 C 409.421875 83.171875 417.167969 84.9375 425.242188 85.269531 C 441.558594 85.980469 456.675781 80.683594 469.632812 70.9375 C 475.902344 66.222656 481.867188 60.945312 488.847656 57.28125 C 490.871094 56.191406 492.984375 55.328125 495.1875 54.683594 C 497.394531 54.042969 499.640625 53.636719 501.929688 53.464844 C 504.21875 53.296875 506.503906 53.367188 508.777344 53.679688 C 511.050781 53.992188 513.269531 54.539062 515.429688 55.316406 C 531.441406 60.816406 544.050781 72.75 560.980469 76.148438 C 578.300781 79.625 597.863281 77.558594 614.964844 73.671875 C 629.507812 70.367188 644.300781 63.617188 651.898438 50.101562 C 658.105469 39.0625 659.335938 24.199219 650.777344 14.011719 Z M 635.984375 63.113281 C 621.539062 72.0625 603.417969 74.160156 586.796875 75.253906 C 577.617188 75.859375 568.253906 75.738281 559.238281 73.707031 C 550.285156 71.6875 542.386719 67.359375 534.515625 62.789062 C 522.507812 55.820312 509.253906 48.1875 494.929688 52.394531 C 480.625 56.59375 470.84375 69.125 457.941406 75.945312 C 454.21875 77.875 450.347656 79.429688 446.328125 80.617188 C 442.308594 81.800781 438.210938 82.59375 434.039062 82.988281 C 429.867188 83.386719 425.695312 83.386719 421.523438 82.980469 C 417.351562 82.578125 413.257812 81.78125 409.238281 80.59375 C 400.835938 78.078125 393.851562 73.449219 386.441406 68.929688 C 380.144531 65.09375 373.496094 62.203125 365.992188 62.335938 C 351.332031 62.589844 338.59375 71.636719 324.96875 75.867188 C 317.1875 78.28125 309.414062 78.925781 301.617188 76.210938 C 298.691406 75.191406 287.984375 71.992188 282.503906 61.578125 C 276.785156 50.710938 280.566406 39.40625 282.003906 35.101562 C 283.632812 30.464844 285.929688 26.191406 288.898438 22.273438 C 290.320312 20.414062 291.878906 18.675781 293.574219 17.058594 C 297.75 13.066406 302.515625 9.746094 306.605469 5.65625 C 315.890625 -3.632812 319.261719 -15.699219 317.867188 -28.542969 C 317.035156 -36.171875 317.5625 -42.589844 322.046875 -49.121094 C 324.085938 -51.96875 326.449219 -54.519531 329.125 -56.777344 C 331.804688 -59.03125 334.722656 -60.921875 337.875 -62.449219 C 351.375 -69.300781 367.726562 -70.546875 382.585938 -69.902344 C 392.398438 -69.476562 402.03125 -67.917969 411.484375 -65.238281 C 419.921875 -62.847656 428.160156 -59.777344 436.664062 -57.617188 C 452.378906 -53.625 467.0625 -54.410156 480.335938 -64.347656 C 492.402344 -73.378906 502.347656 -85.976562 518.144531 -88.242188 C 536.128906 -90.820312 553.308594 -81.242188 564.875 -68.105469 C 575.933594 -55.546875 581.832031 -40.292969 589.261719 -25.566406 C 592.535156 -19.074219 596.433594 -12.722656 601.929688 -7.867188 C 606.734375 -3.621094 612.542969 -1.011719 618.574219 0.976562 C 631.996094 5.40625 649.488281 8.039062 653.96875 23.878906 C 658.320312 39.257812 648.789062 55.179688 635.984375 63.113281 Z M 635.984375 63.113281 " fill-opacity="1" fill-rule="nonzero"/><path fill="#457373" d="M 284.246094 40.65625 C 283.371094 45.042969 282.285156 50.035156 284 54.328125 C 285.546875 57.988281 287.691406 61.253906 290.429688 64.128906 C 291.847656 65.710938 293.429688 67.109375 295.167969 68.328125 C 296.90625 69.546875 298.761719 70.554688 300.730469 71.347656 C 302.699219 72.144531 304.730469 72.707031 306.828125 73.035156 C 308.925781 73.367188 311.035156 73.453125 313.152344 73.300781 C 314.46875 73.203125 313.59375 70.894531 312.367188 70.996094 C 310.4375 71.140625 308.515625 71.0625 306.601562 70.761719 C 304.691406 70.464844 302.835938 69.953125 301.042969 69.226562 C 299.246094 68.503906 297.558594 67.585938 295.976562 66.472656 C 294.390625 65.359375 292.953125 64.082031 291.664062 62.636719 C 289.476562 60.292969 287.6875 57.679688 286.292969 54.789062 C 284.253906 50.472656 285.710938 45.824219 285.882812 41.285156 C 285.917969 40.351562 284.496094 39.402344 284.246094 40.65625 Z M 284.246094 40.65625 " fill-opacity="1" fill-rule="nonzero"/><path fill="#457373" d="M 317.054688 72.464844 C 319.570312 73.425781 322.726562 72.550781 325.015625 71.351562 C 326.011719 70.832031 324.914062 69.066406 323.910156 69.511719 C 322.757812 70.054688 321.558594 70.453125 320.308594 70.707031 C 319.1875 70.917969 318.011719 70.925781 316.917969 71.242188 C 316.300781 71.417969 316.589844 72.285156 317.054688 72.464844 Z M 317.054688 72.464844 " fill-opacity="1" fill-rule="nonzero"/><path fill="#457373" d="M 477.914062 71.683594 C 482.117188 70.691406 485.222656 67.519531 488.824219 65.324219 C 491.058594 63.964844 493.433594 62.941406 495.953125 62.25 C 498.472656 61.558594 501.035156 61.226562 503.648438 61.25 C 514.199219 61.382812 522.402344 68.328125 531.667969 72.273438 C 532.640625 72.6875 532.566406 71.257812 532.039062 70.84375 C 527.929688 67.609375 522.839844 65.160156 518.140625 62.863281 C 513.460938 60.574219 508.636719 58.859375 503.371094 58.800781 C 498.914062 58.726562 494.679688 59.660156 490.664062 61.597656 C 485.875 63.921875 481.914062 67.691406 477.28125 70.324219 C 476.652344 70.683594 477.265625 71.835938 477.914062 71.683594 Z M 477.914062 71.683594 " fill-opacity="1" fill-rule="nonzero"/><path fill="#457373" d="M 535.527344 75.734375 C 537.914062 77.167969 540.425781 78.324219 543.066406 79.210938 C 544.578125 79.773438 544.453125 77.476562 543.34375 76.964844 C 540.910156 75.738281 538.371094 74.800781 535.722656 74.164062 C 534.785156 73.976562 535.023438 75.410156 535.527344 75.734375 Z M 535.527344 75.734375 " fill-opacity="1" fill-rule="nonzero"/><path fill="#457373" d="M 641.800781 13.953125 C 650.121094 19.804688 651.746094 29.394531 648.09375 38.5625 C 645.019531 46.273438 639.128906 52.304688 633.378906 58.089844 C 632.457031 59.015625 634.125 61.015625 635.152344 59.984375 C 642.628906 52.476562 650.5 44.113281 651.832031 33.101562 C 652.78125 25.230469 649.691406 16.246094 642.085938 12.847656 C 641.363281 12.523438 641.355469 13.640625 641.800781 13.953125 Z M 641.800781 13.953125 " fill-opacity="1" fill-rule="nonzero"/><path fill="#457373" d="M 621.84375 64.917969 C 623.136719 64.554688 624.460938 64.3125 625.738281 63.914062 C 626.921875 63.710938 627.992188 63.246094 628.949219 62.523438 C 629.585938 61.898438 628.800781 60.621094 628.03125 60.566406 C 626.796875 60.472656 625.5625 61.171875 624.429688 61.628906 C 623.28125 62.097656 622.1875 62.707031 621.042969 63.199219 C 620.214844 63.558594 621.042969 65.144531 621.84375 64.917969 Z M 621.84375 64.917969 " fill-opacity="1" fill-rule="nonzero"/><g clip-path="url(#9dd9c3d7fb)"><g clip-path="url(#6c892f8c3a)"><g clip-path="url(#fa6aa4b4e7)"><path fill="#d5b9b1" d="M 575.707031 563.238281 C 584.25 561.414062 593.582031 564.425781 599.359375 570.929688 C 603.1875 575.253906 605.527344 580.816406 609.527344 585.042969 C 617.699219 593.714844 630.746094 594.734375 642.558594 596.3125 C 655.332031 597.902344 668.414062 600.769531 678.6875 608.402344 C 688.964844 616.03125 695.835938 629.621094 692.367188 641.988281 C 689.027344 653.695312 677.398438 661.484375 665.523438 663.949219 C 656.363281 665.890625 645.871094 665.851562 639.570312 672.75 C 635.335938 677.398438 634.363281 684.046875 632.433594 690.042969 C 627.128906 706.539062 613.054688 719.976562 596.332031 724.519531 C 587.265625 726.957031 577.730469 726.925781 568.375 726.15625 C 547.253906 724.378906 526.390625 718.582031 507.359375 709.300781 C 496.003906 703.734375 485.175781 696.914062 473.542969 691.910156 C 455.730469 684.316406 436.144531 681.21875 416.886719 682.855469 C 406.382812 683.777344 395.816406 686.054688 385.253906 685.003906 C 365.613281 682.941406 349.253906 669.566406 334.597656 656.378906 C 327.730469 650.207031 320.457031 642.898438 320.027344 633.578125 C 319.660156 625.589844 324.558594 618.382812 329.328125 611.84375 C 332.273438 607.824219 335.390625 603.710938 339.726562 601.28125 C 343.265625 599.390625 347.363281 598.734375 351.285156 598.175781 C 360.933594 596.777344 370.578125 595.378906 380.152344 593.933594 C 383.757812 593.371094 387.605469 592.761719 390.4375 590.492188 C 392.421875 588.835938 393.726562 586.601562 394.953125 584.320312 C 403.136719 568.167969 405.414062 548.863281 416.957031 534.886719 C 429.640625 519.539062 451.476562 513.953125 471.136719 516.78125 C 490.867188 519.660156 508.761719 529.667969 525.113281 540.996094 C 534.09375 547.210938 542.800781 553.988281 552.6875 558.558594 C 562.574219 563.128906 565.375 566.75 575.707031 563.238281 " fill-opacity="1" fill-rule="nonzero"/></g></g></g><g clip-path="url(#38401cc4b7)"><g clip-path="url(#7ee20852a6)"><g clip-path="url(#dcc151d4bc)"><path fill="#d5b9b1" d="M 575.890625 564.546875 C 582.851562 563.152344 590.226562 564.9375 595.804688 569.371094 C 601.769531 574.179688 604.136719 581.914062 609.777344 587.039062 C 615.617188 592.511719 623.453125 594.722656 631.054688 596.019531 C 639.125 597.417969 647.273438 597.90625 655.242188 599.773438 C 669.550781 603.046875 683.699219 610.191406 689.722656 624.390625 C 692.183594 630.253906 692.808594 636.914062 690.632812 642.960938 C 688.226562 649.816406 682.65625 655.167969 676.34375 658.617188 C 670.078125 661.988281 663.4375 663.066406 656.554688 664.191406 C 650.359375 665.25 643.792969 666.699219 639.238281 671.34375 C 633.617188 677.089844 633.019531 685.390625 630.21875 692.515625 C 627.691406 699.074219 623.71875 705.082031 618.769531 709.992188 C 613.71875 715.054688 607.644531 719.09375 600.992188 721.773438 C 593.96875 724.523438 586.34375 725.472656 578.804688 725.507812 C 562.691406 725.519531 546.507812 722.472656 531.179688 717.539062 C 523.492188 715.105469 516.027344 712.183594 508.769531 708.648438 C 500.746094 704.808594 493.175781 700.308594 485.304688 696.25 C 471.332031 689.007812 456.667969 683.878906 440.96875 682.023438 C 433.386719 681.171875 425.800781 680.957031 418.230469 681.511719 C 410.539062 682.085938 402.886719 683.550781 395.097656 683.953125 C 387.183594 684.378906 379.503906 683.355469 372.140625 680.605469 C 364.96875 677.882812 358.40625 673.957031 352.238281 669.445312 C 345.925781 664.832031 339.960938 659.703125 334.222656 654.402344 C 329.484375 650 324.601562 645.179688 322.394531 638.949219 C 319.898438 631.878906 322.476562 624.921875 326.253906 618.890625 C 328.28125 615.753906 330.5 612.640625 332.820312 609.703125 C 335.289062 606.542969 338.125 603.636719 341.789062 602.039062 C 345.277344 600.539062 349.148438 600.054688 352.824219 599.542969 C 357.117188 598.914062 361.410156 598.285156 365.703125 597.65625 C 370.121094 597.003906 374.539062 596.347656 378.953125 595.695312 C 382.507812 595.207031 386.257812 594.746094 389.449219 593.046875 C 392.867188 591.179688 394.871094 587.917969 396.527344 584.53125 C 398.285156 580.996094 399.824219 577.3125 401.214844 573.527344 C 403.996094 565.957031 406.238281 558.238281 409.488281 550.773438 C 412.558594 543.722656 416.46875 537.027344 422.183594 531.773438 C 427.03125 527.328125 432.726562 524 438.863281 521.613281 C 452.042969 516.597656 466.699219 516.671875 480.21875 520.160156 C 495.828125 524.210938 509.964844 532.316406 523.136719 541.375 C 530.210938 546.292969 537.085938 551.5 544.4375 555.851562 C 547.964844 557.925781 551.667969 559.585938 555.347656 561.441406 C 557.675781 562.59375 559.90625 563.894531 562.261719 564.851562 C 566.976562 566.765625 571.613281 566.261719 576.359375 564.648438 C 577.988281 564.144531 576.828125 561.746094 575.199219 562.25 C 572.554688 563.136719 569.738281 563.804688 566.859375 563.460938 C 564.570312 563.195312 562.386719 562.140625 560.277344 561.136719 C 553.289062 557.675781 546.324219 554.339844 539.808594 550.019531 C 532.5625 545.203125 525.613281 539.941406 518.390625 535.246094 C 511.605469 530.851562 504.449219 526.847656 497.039062 523.53125 C 483.203125 517.351562 468.15625 513.898438 452.960938 515.714844 C 439.640625 517.304688 426.433594 522.839844 417.292969 532.964844 C 406.3125 545.175781 403.074219 561.785156 397.144531 576.671875 C 395.628906 580.480469 394.039062 584.558594 391.542969 587.914062 C 389.046875 591.269531 385.34375 592.300781 381.371094 592.929688 C 372.488281 594.3125 363.582031 595.566406 354.675781 596.824219 C 350.75 597.382812 346.804688 597.816406 343 598.992188 C 339.316406 600.144531 336.242188 602.140625 333.628906 604.878906 C 330.894531 607.640625 328.644531 610.949219 326.371094 614.136719 C 324.25 617.101562 322.226562 620.238281 320.765625 623.652344 C 317.992188 629.9375 317.878906 636.742188 320.976562 642.929688 C 324.070312 649.117188 329.273438 653.945312 334.355469 658.472656 C 345.964844 668.40625 358.359375 678.761719 373.316406 683.769531 C 380.757812 686.25 388.367188 686.902344 396.082031 686.453125 C 404.046875 685.953125 411.945312 684.441406 419.980469 683.992188 C 435.734375 683.085938 451.703125 685.34375 466.535156 690.691406 C 482.9375 696.574219 497.304688 706.554688 513.15625 713.566406 C 528.296875 720.199219 544.441406 724.722656 560.902344 726.882812 C 576.089844 728.710938 592.171875 729.21875 606.183594 722.1875 C 618.859375 715.859375 629.09375 704.433594 633.558594 690.917969 C 636.09375 683.394531 637.113281 674.628906 644.691406 670.425781 C 650.585938 667.125 657.6875 666.789062 664.226562 665.539062 C 677.804688 662.941406 691.734375 654.136719 694.285156 639.640625 C 696.652344 626.519531 688.597656 613.414062 678.09375 606.277344 C 671.335938 601.683594 663.503906 598.832031 655.5625 597.089844 C 647.347656 595.269531 638.929688 594.707031 630.664062 593.28125 C 622.59375 591.882812 614.464844 589.152344 609.105469 582.5 C 606.597656 579.398438 604.761719 575.785156 602.425781 572.582031 C 600.261719 569.609375 597.671875 567.097656 594.511719 565.269531 C 588.804688 561.820312 581.917969 560.578125 575.398438 561.953125 C 573.71875 562.210938 574.285156 564.855469 575.890625 564.546875 Z M 575.890625 564.546875 " fill-opacity="1" fill-rule="nonzero"/></g></g></g></svg>