<svg xmlns="http://www.w3.org/2000/svg" xmlns:xlink="http://www.w3.org/1999/xlink" width="1280" zoomAndPan="magnify" viewBox="0 0 960 599.999999" height="800" preserveAspectRatio="xMidYMid meet" version="1.0"><defs><clipPath id="e776307971"><path d="M 850 33 L 960 33 L 960 319 L 850 319 Z M 850 33 " clip-rule="nonzero"/></clipPath><clipPath id="3044485bf9"><path d="M 1068.332031 20.253906 L 1085.445312 335.539062 L 851.042969 348.265625 L 833.929688 32.976562 Z M 1068.332031 20.253906 " clip-rule="nonzero"/></clipPath><clipPath id="5c02892996"><path d="M 1068.332031 20.253906 L 1085.445312 335.539062 L 851.042969 348.265625 L 833.929688 32.976562 Z M 1068.332031 20.253906 " clip-rule="nonzero"/></clipPath><clipPath id="c408e99f49"><path d="M 833.742188 571 L 935 571 L 935 600 L 833.742188 600 Z M 833.742188 571 " clip-rule="nonzero"/></clipPath><clipPath id="c9ce23836f"><path d="M 925 479.636719 L 960 479.636719 L 960 581 L 925 581 Z M 925 479.636719 " clip-rule="nonzero"/></clipPath><clipPath id="69013ef38f"><path d="M 121.082031 443 L 186 443 L 186 517.910156 L 121.082031 517.910156 Z M 121.082031 443 " clip-rule="nonzero"/></clipPath><clipPath id="7233472c74"><path d="M 185 443 L 250.082031 443 L 250.082031 517.910156 L 185 517.910156 Z M 185 443 " clip-rule="nonzero"/></clipPath><clipPath id="7c2cec88f3"><path d="M 421 520 L 716 520 L 716 600 L 421 600 Z M 421 520 " clip-rule="nonzero"/></clipPath><clipPath id="cd4dc2645f"><path d="M 453.019531 472.207031 L 763.113281 531.703125 L 718.882812 762.246094 L 408.789062 702.753906 Z M 453.019531 472.207031 " clip-rule="nonzero"/></clipPath><clipPath id="5e28eff8b7"><path d="M 453.019531 472.207031 L 763.113281 531.703125 L 718.882812 762.246094 L 408.789062 702.753906 Z M 453.019531 472.207031 " clip-rule="nonzero"/></clipPath><clipPath id="b8f7aa1580"><path d="M 900 387.496094 L 960 387.496094 L 960 517.996094 L 900 517.996094 Z M 900 387.496094 " clip-rule="nonzero"/></clipPath><clipPath id="01e9ccd1c5"><path d="M 211 6 L 314 6 L 314 110 L 211 110 Z M 211 6 " clip-rule="nonzero"/></clipPath><clipPath id="0114ac464a"><path d="M 199.46875 23.472656 L 297.316406 -5.332031 L 326.121094 92.515625 L 228.273438 121.320312 Z M 199.46875 23.472656 " clip-rule="nonzero"/></clipPath><clipPath id="2e0c07a3d3"><path d="M 240 0 L 352 0 L 352 104 L 240 104 Z M 240 0 " clip-rule="nonzero"/></clipPath><clipPath id="050530f148"><path d="M 226.863281 10.269531 L 333.78125 -21.207031 L 365.257812 85.707031 L 258.339844 117.183594 Z M 226.863281 10.269531 " clip-rule="nonzero"/></clipPath><clipPath id="aef36deff3"><path d="M 0 561.441406 L 185.707031 561.441406 L 185.707031 600 L 0 600 Z M 0 561.441406 " clip-rule="nonzero"/></clipPath><clipPath id="61d347de1f"><path d="M 613 20 L 715 20 L 715 122 L 613 122 Z M 613 20 " clip-rule="nonzero"/></clipPath><clipPath id="8a6451188f"><path d="M 714.628906 70.632812 L 664.246094 121.015625 L 613.867188 70.632812 L 664.246094 20.253906 Z M 714.628906 70.632812 " clip-rule="nonzero"/></clipPath><clipPath id="933cec135f"><path d="M 593.785156 0 L 734.785156 0 L 734.785156 70.5 L 593.785156 70.5 Z M 593.785156 0 " clip-rule="nonzero"/></clipPath><clipPath id="f8d2e7d2ff"><path d="M 17 355 L 60 355 L 60 393 L 17 393 Z M 17 355 " clip-rule="nonzero"/></clipPath><clipPath id="89c4283d77"><path d="M 18.238281 393.339844 L 13.359375 207.40625 L 55.34375 206.304688 L 60.226562 392.238281 Z M 18.238281 393.339844 " clip-rule="nonzero"/></clipPath><clipPath id="a4613c9916"><path d="M 18.238281 393.339844 L 13.359375 207.40625 L 55.34375 206.304688 L 60.226562 392.238281 Z M 18.238281 393.339844 " clip-rule="nonzero"/></clipPath><clipPath id="4144ff43eb"><path d="M 16 305 L 59 305 L 59 344 L 16 344 Z M 16 305 " clip-rule="nonzero"/></clipPath><clipPath id="78a2ede862"><path d="M 18.238281 393.339844 L 13.359375 207.40625 L 55.34375 206.304688 L 60.226562 392.238281 Z M 18.238281 393.339844 " clip-rule="nonzero"/></clipPath><clipPath id="bdbf19566a"><path d="M 18.238281 393.339844 L 13.359375 207.40625 L 55.34375 206.304688 L 60.226562 392.238281 Z M 18.238281 393.339844 " clip-rule="nonzero"/></clipPath><clipPath id="46fa798afc"><path d="M 14 256 L 57 256 L 57 294 L 14 294 Z M 14 256 " clip-rule="nonzero"/></clipPath><clipPath id="8a9baeb78e"><path d="M 18.238281 393.339844 L 13.359375 207.40625 L 55.34375 206.304688 L 60.226562 392.238281 Z M 18.238281 393.339844 " clip-rule="nonzero"/></clipPath><clipPath id="e0d50c19ac"><path d="M 18.238281 393.339844 L 13.359375 207.40625 L 55.34375 206.304688 L 60.226562 392.238281 Z M 18.238281 393.339844 " clip-rule="nonzero"/></clipPath><clipPath id="7576e9712e"><path d="M 13 206 L 56 206 L 56 244 L 13 244 Z M 13 206 " clip-rule="nonzero"/></clipPath><clipPath id="6eea3ee7d9"><path d="M 18.238281 393.339844 L 13.359375 207.40625 L 55.34375 206.304688 L 60.226562 392.238281 Z M 18.238281 393.339844 " clip-rule="nonzero"/></clipPath><clipPath id="7e4b49036b"><path d="M 18.238281 393.339844 L 13.359375 207.40625 L 55.34375 206.304688 L 60.226562 392.238281 Z M 18.238281 393.339844 " clip-rule="nonzero"/></clipPath><clipPath id="170ea046c6"><path d="M 352.152344 539.28125 L 528.402344 539.28125 L 528.402344 558 L 352.152344 558 Z M 352.152344 539.28125 " clip-rule="nonzero"/></clipPath><clipPath id="f85456084c"><path d="M 352.152344 565 L 528.402344 565 L 528.402344 583.53125 L 352.152344 583.53125 Z M 352.152344 565 " clip-rule="nonzero"/></clipPath></defs><rect x="-96" width="1152" fill="#ffffff" y="-60" height="719.999999" fill-opacity="1"/><rect x="-96" width="1152" fill="#ffffff" y="-60" height="719.999999" fill-opacity="1"/><rect x="-96" width="1152" fill="#f2f2f2" y="-60" height="719.999999" fill-opacity="1"/><g clip-path="url(#e776307971)"><g clip-path="url(#3044485bf9)"><g clip-path="url(#5c02892996)"><path fill="#457373" d="M 941.917969 41.378906 C 915.269531 38.113281 897.21875 29.582031 879.699219 34.917969 C 834.78125 48.597656 851.742188 87.835938 868.328125 126.59375 C 899.285156 198.925781 854.109375 203.980469 857.277344 236.316406 C 864.628906 311.417969 966.148438 341.96875 985.960938 299.328125 C 1006.996094 254.0625 1023.539062 256.878906 1049.300781 244.199219 C 1079.679688 229.246094 1063.875 196.441406 1048 171.515625 C 1039.09375 157.53125 1025.039062 152.949219 1020.328125 137.886719 C 1006.789062 94.636719 1033.832031 75.121094 1004.679688 45.875 C 989.691406 30.835938 967.207031 44.480469 941.917969 41.378906 " fill-opacity="1" fill-rule="evenodd"/></g></g></g><g clip-path="url(#c408e99f49)"><path fill="#a4bdbe" d="M 833.679688 576.730469 L 838.707031 571.707031 L 934.953125 667.953125 L 929.929688 672.976562 Z M 833.679688 576.730469 " fill-opacity="1" fill-rule="nonzero"/></g><path fill="#a4bdbe" d="M 845.179688 565.207031 L 850.203125 560.183594 L 946.453125 656.425781 L 941.429688 661.453125 Z M 845.179688 565.207031 " fill-opacity="1" fill-rule="nonzero"/><path fill="#a4bdbe" d="M 856.710938 553.683594 L 861.738281 548.660156 L 957.984375 644.902344 L 952.960938 649.929688 Z M 856.710938 553.683594 " fill-opacity="1" fill-rule="nonzero"/><path fill="#a4bdbe" d="M 868.230469 542.171875 L 873.253906 537.148438 L 969.5 633.394531 L 964.476562 638.417969 Z M 868.230469 542.171875 " fill-opacity="1" fill-rule="nonzero"/><path fill="#a4bdbe" d="M 879.746094 530.667969 L 884.769531 525.640625 L 981.019531 621.886719 L 975.996094 626.910156 Z M 879.746094 530.667969 " fill-opacity="1" fill-rule="nonzero"/><path fill="#a4bdbe" d="M 891.242188 519.140625 L 896.269531 514.117188 L 992.515625 610.363281 L 987.492188 615.386719 Z M 891.242188 519.140625 " fill-opacity="1" fill-rule="nonzero"/><path fill="#a4bdbe" d="M 902.777344 507.617188 L 907.800781 502.59375 L 1004.050781 598.835938 L 999.027344 603.863281 Z M 902.777344 507.617188 " fill-opacity="1" fill-rule="nonzero"/><path fill="#a4bdbe" d="M 914.292969 496.109375 L 919.316406 491.085938 L 1015.566406 587.328125 L 1010.542969 592.355469 Z M 914.292969 496.109375 " fill-opacity="1" fill-rule="nonzero"/><g clip-path="url(#c9ce23836f)"><path fill="#a4bdbe" d="M 925.8125 484.601562 L 930.835938 479.578125 L 1027.082031 575.820312 L 1022.058594 580.847656 Z M 925.8125 484.601562 " fill-opacity="1" fill-rule="nonzero"/></g><g clip-path="url(#69013ef38f)"><path fill="#d5b9b1" d="M 121.140625 480.484375 L 185.652344 517.824219 L 185.652344 443.140625 Z M 121.140625 480.484375 " fill-opacity="1" fill-rule="nonzero"/></g><g clip-path="url(#7233472c74)"><path fill="#a4bdbe" d="M 250.167969 480.484375 L 250.167969 443.140625 L 185.652344 480.484375 L 250.167969 517.824219 Z M 250.167969 480.484375 " fill-opacity="1" fill-rule="nonzero"/></g><g clip-path="url(#7c2cec88f3)"><g clip-path="url(#cd4dc2645f)"><g clip-path="url(#5e28eff8b7)"><path fill="#d5b9b1" d="M 443.007812 599.984375 C 433.402344 625.058594 420.769531 640.515625 421.71875 658.804688 C 424.152344 705.699219 466.324219 698.710938 507.941406 691.96875 C 585.601562 679.386719 579.609375 724.445312 611.75 729.175781 C 686.40625 740.167969 740.554688 649.023438 703.960938 619.507812 C 665.109375 588.167969 671.832031 572.792969 665.75 544.730469 C 658.570312 511.640625 622.921875 519.0625 594.902344 528.449219 C 579.179688 533.71875 571.339844 546.25 555.585938 547.191406 C 510.347656 549.886719 497.9375 518.933594 462.519531 540.164062 C 444.308594 551.082031 452.121094 576.191406 443.007812 599.984375 " fill-opacity="1" fill-rule="evenodd"/></g></g></g><g clip-path="url(#b8f7aa1580)"><path fill="#d5b9b1" d="M 986.625 387.496094 C 938.785156 387.496094 900 416.710938 900 452.746094 C 900 488.785156 938.785156 517.996094 986.625 517.996094 C 1034.464844 517.996094 1073.25 488.785156 1073.25 452.746094 C 1073.25 416.710938 1034.464844 387.496094 986.625 387.496094 " fill-opacity="1" fill-rule="nonzero"/></g><g clip-path="url(#01e9ccd1c5)"><g clip-path="url(#0114ac464a)"><path fill="#d5b9b1" d="M 248.394531 9.070312 C 221.371094 17.027344 205.917969 45.378906 213.871094 72.398438 C 221.828125 99.417969 250.179688 114.875 277.199219 106.917969 C 304.21875 98.964844 319.675781 70.613281 311.71875 43.59375 C 303.765625 16.570312 275.414062 1.117188 248.394531 9.070312 " fill-opacity="1" fill-rule="nonzero"/></g></g><g clip-path="url(#2e0c07a3d3)"><g clip-path="url(#050530f148)"><path fill="#457373" d="M 311.800781 101.445312 C 297.527344 105.648438 282.453125 104.050781 269.390625 96.914062 C 256.316406 89.804688 246.804688 78 242.601562 63.726562 C 238.402344 49.453125 240 34.378906 247.136719 21.320312 C 254.246094 8.242188 266.050781 -1.269531 280.324219 -5.46875 C 294.597656 -9.671875 309.671875 -8.074219 322.730469 -0.9375 C 335.8125 6.195312 345.316406 17.976562 349.519531 32.25 C 353.722656 46.523438 352.121094 61.597656 344.984375 74.65625 C 337.875 87.734375 326.070312 97.246094 311.800781 101.445312 Z M 281.265625 -2.265625 C 267.847656 1.683594 256.761719 10.636719 250.070312 22.917969 C 243.375 35.195312 241.859375 49.363281 245.808594 62.78125 C 249.757812 76.199219 258.710938 87.289062 270.988281 93.980469 C 283.269531 100.675781 297.4375 102.191406 310.855469 98.242188 C 324.273438 94.292969 335.359375 85.339844 342.054688 73.058594 C 348.746094 60.78125 350.265625 46.613281 346.316406 33.195312 C 342.363281 19.777344 333.414062 8.691406 321.132812 1.996094 C 308.851562 -4.699219 294.683594 -6.214844 281.265625 -2.265625 Z M 281.265625 -2.265625 " fill-opacity="1" fill-rule="nonzero"/></g></g><g clip-path="url(#aef36deff3)"><path fill="#a4bdbe" d="M -25.792969 561.441406 L 185.707031 561.441406 L 185.707031 673.191406 L -25.792969 673.191406 L -25.792969 561.441406 " fill-opacity="1" fill-rule="nonzero"/></g><g clip-path="url(#61d347de1f)"><g clip-path="url(#8a6451188f)"><path fill="#457373" d="M 714.628906 70.632812 L 664.246094 20.253906 L 613.867188 70.632812 L 664.246094 121.015625 L 714.628906 70.632812 M 617.074219 70.632812 L 664.28125 23.429688 L 711.484375 70.632812 L 664.28125 117.839844 L 617.074219 70.632812 " fill-opacity="1" fill-rule="nonzero"/></g></g><g clip-path="url(#933cec135f)"><path fill="#457373" d="M 664.285156 70.457031 L 734.785156 0.0429688 L 593.785156 0.0429688 Z M 664.285156 70.457031 " fill-opacity="1" fill-rule="nonzero"/></g><g clip-path="url(#f8d2e7d2ff)"><g clip-path="url(#89c4283d77)"><g clip-path="url(#a4613c9916)"><path fill="#457373" d="M 39.117188 385.972656 L 53.195312 360.140625 L 23.703125 360.914062 Z M 59.339844 357.714844 C 59.351562 358.105469 59.257812 358.496094 59.066406 358.851562 L 41.230469 391.578125 C 40.84375 392.285156 40.105469 392.738281 39.292969 392.761719 C 38.484375 392.78125 37.722656 392.367188 37.296875 391.679688 L 17.773438 359.9375 C 17.347656 359.246094 17.324219 358.386719 17.714844 357.671875 C 18.101562 356.964844 18.835938 356.515625 19.648438 356.492188 L 57.007812 355.511719 C 57.820312 355.492188 58.582031 355.902344 59.007812 356.589844 C 59.21875 356.933594 59.328125 357.324219 59.339844 357.714844 " fill-opacity="1" fill-rule="nonzero"/></g></g></g><g clip-path="url(#4144ff43eb)"><g clip-path="url(#78a2ede862)"><g clip-path="url(#bdbf19566a)"><path fill="#a4bdbe" d="M 37.8125 336.285156 L 51.890625 310.453125 L 22.398438 311.226562 Z M 58.035156 308.027344 C 58.046875 308.417969 57.953125 308.8125 57.761719 309.167969 L 39.929688 341.890625 C 39.539062 342.601562 38.800781 343.050781 37.988281 343.074219 C 37.179688 343.09375 36.417969 342.683594 35.992188 341.996094 L 16.46875 310.253906 C 16.042969 309.5625 16.019531 308.699219 16.410156 307.988281 C 16.796875 307.277344 17.53125 306.828125 18.34375 306.804688 L 55.703125 305.824219 C 56.515625 305.804688 57.277344 306.214844 57.703125 306.90625 C 57.914062 307.25 58.023438 307.636719 58.035156 308.027344 " fill-opacity="1" fill-rule="nonzero"/></g></g></g><g clip-path="url(#46fa798afc)"><g clip-path="url(#8a9baeb78e)"><g clip-path="url(#e0d50c19ac)"><path fill="#457373" d="M 36.507812 286.601562 L 50.585938 260.765625 L 21.09375 261.542969 Z M 56.730469 258.339844 C 56.742188 258.734375 56.652344 259.125 56.457031 259.480469 L 38.625 292.203125 C 38.234375 292.914062 37.496094 293.367188 36.683594 293.386719 C 35.875 293.410156 35.113281 292.996094 34.691406 292.308594 L 15.164062 260.566406 C 14.738281 259.875 14.714844 259.015625 15.105469 258.300781 C 15.492188 257.589844 16.226562 257.140625 17.039062 257.117188 L 54.398438 256.136719 C 55.210938 256.117188 55.972656 256.527344 56.398438 257.21875 C 56.609375 257.5625 56.722656 257.953125 56.730469 258.339844 " fill-opacity="1" fill-rule="nonzero"/></g></g></g><g clip-path="url(#7576e9712e)"><g clip-path="url(#6eea3ee7d9)"><g clip-path="url(#7e4b49036b)"><path fill="#a4bdbe" d="M 35.203125 236.914062 L 49.28125 211.082031 L 19.789062 211.855469 Z M 55.425781 208.65625 C 55.4375 209.046875 55.347656 209.441406 55.152344 209.796875 L 37.320312 242.519531 C 36.929688 243.230469 36.195312 243.683594 35.378906 243.703125 C 34.570312 243.722656 33.808594 243.3125 33.386719 242.621094 L 13.859375 210.878906 C 13.433594 210.1875 13.410156 209.328125 13.800781 208.617188 C 14.1875 207.90625 14.921875 207.453125 15.734375 207.433594 L 53.09375 206.453125 C 53.910156 206.429688 54.667969 206.84375 55.09375 207.53125 C 55.304688 207.878906 55.417969 208.265625 55.425781 208.65625 " fill-opacity="1" fill-rule="nonzero"/></g></g></g><g clip-path="url(#170ea046c6)"><path fill="#a4bdbe" d="M 483.671875 539.289062 L 505.386719 551.90625 L 525.847656 540.015625 L 528.355469 544.324219 L 505.386719 557.667969 L 483.671875 545.050781 L 461.957031 557.667969 L 440.242188 545.050781 L 418.527344 557.667969 L 396.8125 545.050781 L 375.097656 557.667969 L 352.132812 544.324219 L 354.640625 540.015625 L 375.097656 551.90625 L 396.8125 539.289062 L 418.527344 551.90625 L 440.242188 539.289062 L 461.957031 551.90625 L 483.671875 539.289062 " fill-opacity="1" fill-rule="nonzero"/></g><g clip-path="url(#f85456084c)"><path fill="#a4bdbe" d="M 483.671875 565.066406 L 505.386719 577.683594 L 525.847656 565.796875 L 528.355469 570.101562 L 505.386719 583.449219 L 483.671875 570.832031 L 461.957031 583.449219 L 440.242188 570.828125 L 418.527344 583.445312 L 396.8125 570.832031 L 375.097656 583.449219 L 352.132812 570.101562 L 354.640625 565.796875 L 375.097656 577.683594 L 396.8125 565.066406 L 418.527344 577.683594 L 440.242188 565.066406 L 461.957031 577.683594 L 483.671875 565.066406 " fill-opacity="1" fill-rule="nonzero"/></g></svg>