<svg xmlns="http://www.w3.org/2000/svg" xmlns:xlink="http://www.w3.org/1999/xlink" width="1280" zoomAndPan="magnify" viewBox="0 0 960 599.999999" height="800" preserveAspectRatio="xMidYMid meet" version="1.0"><defs><clipPath id="7f9e56247f"><path d="M 0 312.984375 L 105.378906 312.984375 L 105.378906 445.117188 L 0 445.117188 Z M 0 312.984375 " clip-rule="nonzero"/></clipPath><clipPath id="f4ba16acff"><path d="M 0 260.851562 L 45.554688 260.851562 L 45.554688 365.101562 L 0 365.101562 Z M 0 260.851562 " clip-rule="nonzero"/></clipPath><clipPath id="0065528a3a"><path d="M 0 217.742188 L 96.070312 217.742188 L 96.070312 229 L 0 229 Z M 0 217.742188 " clip-rule="nonzero"/></clipPath><clipPath id="7fc552edc0"><path d="M 0 233 L 96.070312 233 L 96.070312 244.742188 L 0 244.742188 Z M 0 233 " clip-rule="nonzero"/></clipPath><clipPath id="6b3eb8e9de"><path d="M 70.535156 564.480469 L 150 564.480469 L 150 600 L 70.535156 600 Z M 70.535156 564.480469 " clip-rule="nonzero"/></clipPath><clipPath id="61e9cac0fb"><path d="M 76.453125 575.496094 L 159.652344 575.496094 L 159.652344 600 L 76.453125 600 Z M 76.453125 575.496094 " clip-rule="nonzero"/></clipPath><clipPath id="667fe04379"><path d="M 4 172 L 9 172 L 9 176.976562 L 4 176.976562 Z M 4 172 " clip-rule="nonzero"/></clipPath><clipPath id="f6f0fb2ffb"><path d="M 13 172 L 18 172 L 18 176.976562 L 13 176.976562 Z M 13 172 " clip-rule="nonzero"/></clipPath><clipPath id="b10668fc1f"><path d="M 22 172 L 27 172 L 27 176.976562 L 22 176.976562 Z M 22 172 " clip-rule="nonzero"/></clipPath><clipPath id="d162ceb6fa"><path d="M 31 172 L 36 172 L 36 176.976562 L 31 176.976562 Z M 31 172 " clip-rule="nonzero"/></clipPath><clipPath id="5f16624e7f"><path d="M 39 172 L 44 172 L 44 176.976562 L 39 176.976562 Z M 39 172 " clip-rule="nonzero"/></clipPath><clipPath id="ac32ddaf57"><path d="M 48 172 L 53 172 L 53 176.976562 L 48 176.976562 Z M 48 172 " clip-rule="nonzero"/></clipPath><clipPath id="e692f624f4"><path d="M 57 172 L 62 172 L 62 176.976562 L 57 176.976562 Z M 57 172 " clip-rule="nonzero"/></clipPath><clipPath id="cc6c59a59f"><path d="M 66 172 L 70.519531 172 L 70.519531 176.976562 L 66 176.976562 Z M 66 172 " clip-rule="nonzero"/></clipPath><clipPath id="4c9b623877"><path d="M 13 119.976562 L 18 119.976562 L 18 125 L 13 125 Z M 13 119.976562 " clip-rule="nonzero"/></clipPath><clipPath id="ca82962e46"><path d="M 23.867188 74.929688 L 67.25 74.929688 L 67.25 119 L 23.867188 119 Z M 23.867188 74.929688 " clip-rule="nonzero"/></clipPath><clipPath id="da416c85ed"><path d="M 36 147 L 55 147 L 55 164.929688 L 36 164.929688 Z M 36 147 " clip-rule="nonzero"/></clipPath><clipPath id="ffbd2adcbf"><path d="M 0 472.371094 L 88.808594 472.371094 L 88.808594 570.621094 L 0 570.621094 Z M 0 472.371094 " clip-rule="nonzero"/></clipPath><clipPath id="f23317bad2"><path d="M 0 492.878906 L 63.6875 492.878906 L 63.6875 582.878906 L 0 582.878906 Z M 0 492.878906 " clip-rule="nonzero"/></clipPath><clipPath id="d93c34099e"><path d="M 18.804688 454.597656 L 122.304688 454.597656 L 122.304688 544.597656 L 18.804688 544.597656 Z M 18.804688 454.597656 " clip-rule="nonzero"/></clipPath><clipPath id="31a0d10d43"><path d="M 914.53125 77.042969 L 960 77.042969 L 960 141 L 914.53125 141 Z M 914.53125 77.042969 " clip-rule="nonzero"/></clipPath><clipPath id="fc2c69b003"><path d="M 914.53125 140 L 960 140 L 960 203.042969 L 914.53125 203.042969 Z M 914.53125 140 " clip-rule="nonzero"/></clipPath><clipPath id="d04fbf4e49"><path d="M 902 218 L 960 218 L 960 316 L 902 316 Z M 902 218 " clip-rule="nonzero"/></clipPath><clipPath id="944f9dc679"><path d="M 887.023438 243.355469 L 975 203.101562 L 1015.253906 291.082031 L 927.273438 331.335938 Z M 887.023438 243.355469 " clip-rule="nonzero"/></clipPath><clipPath id="0a2819b2f0"><path d="M 895 474 L 960 474 L 960 600 L 895 600 Z M 895 474 " clip-rule="nonzero"/></clipPath><clipPath id="d430f21a2a"><path d="M 874.640625 506.789062 L 988.976562 454.476562 L 1041.289062 568.816406 L 926.953125 621.125 Z M 874.640625 506.789062 " clip-rule="nonzero"/></clipPath><clipPath id="3debfa48e1"><path d="M 767 562.042969 L 772 562.042969 L 772 567 L 767 567 Z M 767 562.042969 " clip-rule="nonzero"/></clipPath><clipPath id="cbdec74f0f"><path d="M 778 562.042969 L 784 562.042969 L 784 567 L 778 567 Z M 778 562.042969 " clip-rule="nonzero"/></clipPath><clipPath id="985196d2a7"><path d="M 790 562.042969 L 796 562.042969 L 796 567 L 790 567 Z M 790 562.042969 " clip-rule="nonzero"/></clipPath><clipPath id="106aea6226"><path d="M 802 562.042969 L 808 562.042969 L 808 567 L 802 567 Z M 802 562.042969 " clip-rule="nonzero"/></clipPath><clipPath id="2b799c7990"><path d="M 814 562.042969 L 820 562.042969 L 820 567 L 814 567 Z M 814 562.042969 " clip-rule="nonzero"/></clipPath><clipPath id="60857ace26"><path d="M 826 562.042969 L 832 562.042969 L 832 567 L 826 567 Z M 826 562.042969 " clip-rule="nonzero"/></clipPath><clipPath id="8ed4bed89e"><path d="M 838 562.042969 L 843 562.042969 L 843 567 L 838 567 Z M 838 562.042969 " clip-rule="nonzero"/></clipPath><clipPath id="a72339c0a8"><path d="M 891.132812 394.382812 L 960 394.382812 L 960 488.882812 L 891.132812 488.882812 Z M 891.132812 394.382812 " clip-rule="nonzero"/></clipPath><clipPath id="8701e95d11"><path d="M 874.640625 382.824219 L 960 382.824219 L 960 472.824219 L 874.640625 472.824219 Z M 874.640625 382.824219 " clip-rule="nonzero"/></clipPath><clipPath id="1f0e7ce4fd"><path d="M 855 428 L 951 428 L 951 445 L 855 445 Z M 855 428 " clip-rule="nonzero"/></clipPath><clipPath id="31cb221f4a"><path d="M 854.976562 429.140625 L 950.957031 427.101562 L 951.289062 442.847656 L 855.3125 444.886719 Z M 854.976562 429.140625 " clip-rule="nonzero"/></clipPath><clipPath id="9d8001c049"><path d="M 854.976562 429.140625 L 950.957031 427.101562 L 951.289062 442.847656 L 855.3125 444.886719 Z M 854.976562 429.140625 " clip-rule="nonzero"/></clipPath><clipPath id="f28bed5aaf"><path d="M 902 257 L 960 257 L 960 354 L 902 354 Z M 902 257 " clip-rule="nonzero"/></clipPath><clipPath id="efae70aa1f"><path d="M 891.132812 273.253906 L 982.917969 246.230469 L 1009.941406 338.015625 L 918.15625 365.039062 Z M 891.132812 273.253906 " clip-rule="nonzero"/></clipPath><clipPath id="3741630785"><path d="M 946 542.039062 L 960 542.039062 L 960 587.039062 L 946 587.039062 Z M 946 542.039062 " clip-rule="nonzero"/></clipPath><clipPath id="f1aa5a479e"><path d="M 898.230469 555 L 917 555 L 917 574 L 898.230469 574 Z M 898.230469 555 " clip-rule="nonzero"/></clipPath></defs><rect x="-96" width="1152" fill="#ffffff" y="-60" height="719.999999" fill-opacity="1"/><rect x="-96" width="1152" fill="#ffffff" y="-60" height="719.999999" fill-opacity="1"/><rect x="-96" width="1152" fill="#f2f2f2" y="-60" height="719.999999" fill-opacity="1"/><g clip-path="url(#7f9e56247f)"><path fill="#a4bdbe" d="M -22.902344 401.230469 C -23.261719 400.269531 -23.5625 399.246094 -23.863281 398.28125 L 58.605469 315.8125 C 59.570312 316.113281 60.59375 316.414062 61.554688 316.773438 Z M 48.976562 313.707031 C 47.832031 313.523438 46.628906 313.402344 45.484375 313.285156 L -26.453125 385.21875 C -26.332031 386.363281 -26.210938 387.566406 -26.03125 388.710938 Z M 77.027344 324.78125 C 76.246094 324.238281 75.460938 323.699219 74.679688 323.214844 L -16.519531 414.414062 C -16.039062 415.199219 -15.496094 415.980469 -14.953125 416.761719 Z M 67.09375 319.0625 C 66.191406 318.640625 65.289062 318.21875 64.386719 317.859375 L -21.816406 404.0625 C -21.457031 404.964844 -21.035156 405.867188 -20.613281 406.769531 Z M 72.210938 321.773438 C 71.367188 321.289062 70.527344 320.808594 69.683594 320.386719 L -19.410156 409.480469 C -18.988281 410.320312 -18.507812 411.164062 -18.023438 412.007812 Z M 12.796875 318.519531 C 9.96875 319.785156 7.199219 321.230469 4.550781 322.855469 L -16.878906 344.285156 C -18.566406 346.933594 -20.011719 349.703125 -21.214844 352.53125 Z M 37.898438 312.984375 L -26.753906 377.632812 C -26.753906 378.960938 -26.753906 380.222656 -26.691406 381.546875 L 41.75 313.042969 C 40.488281 312.984375 39.164062 312.984375 37.898438 312.984375 Z M 105.378906 378.71875 L 38.980469 445.117188 C 40.308594 445.117188 41.691406 445.117188 43.015625 444.996094 L 105.257812 382.75 C 105.320312 381.425781 105.378906 380.042969 105.378906 378.71875 Z M 81.480469 328.210938 C 80.757812 327.609375 80.035156 327.007812 79.316406 326.46875 L -13.269531 419.050781 C -12.726562 419.773438 -12.125 420.496094 -11.523438 421.21875 Z M 33.746094 313.222656 C 32.238281 313.34375 30.796875 313.523438 29.289062 313.765625 L -25.96875 369.027344 C -26.210938 370.53125 -26.390625 371.976562 -26.511719 373.480469 Z M 24.476562 314.667969 C 22.667969 315.089844 20.863281 315.570312 19.058594 316.171875 L -23.621094 358.792969 C -24.164062 360.597656 -24.707031 362.34375 -25.128906 364.210938 Z M 55.476562 314.96875 C 54.394531 314.726562 53.371094 314.488281 52.285156 314.246094 L -25.488281 392.023438 C -25.25 393.105469 -25.007812 394.128906 -24.765625 395.210938 Z M 104.175781 391.660156 C 104.476562 390.09375 104.71875 388.589844 104.898438 387.027344 L 47.289062 444.632812 C 48.855469 444.453125 50.417969 444.214844 51.925781 443.910156 Z M 105.257812 374.925781 C 105.199219 373.722656 105.078125 372.519531 104.957031 371.3125 L 31.578125 444.632812 C 32.78125 444.753906 33.984375 444.875 35.191406 444.933594 Z M 104.417969 367.882812 C 104.234375 366.800781 103.996094 365.714844 103.753906 364.632812 L 24.835938 443.492188 C 25.917969 443.730469 27.003906 443.972656 28.085938 444.152344 Z M 85.574219 331.882812 C 84.914062 331.222656 84.25 330.621094 83.589844 329.957031 L -9.71875 423.265625 C -9.117188 423.925781 -8.453125 424.589844 -7.792969 425.25 Z M 89.425781 422.058594 C 92.738281 418.207031 95.507812 414.113281 97.796875 409.78125 L 70.042969 437.53125 C 74.378906 435.242188 78.472656 432.472656 82.324219 429.164062 Z M 102.972656 361.5 C 102.671875 360.476562 102.371094 359.515625 102.070312 358.492188 L 18.757812 441.804688 C 19.78125 442.105469 20.742188 442.40625 21.765625 442.707031 Z M 101.046875 402.675781 C 101.769531 400.75 102.429688 398.824219 102.972656 396.835938 L 57.101562 442.707031 C 59.089844 442.167969 61.015625 441.503906 62.941406 440.78125 Z M 92.859375 340.3125 C 92.316406 339.589844 91.777344 338.808594 91.171875 338.085938 L -1.652344 430.847656 C -0.929688 431.449219 -0.144531 431.992188 0.578125 432.535156 Z M 101.046875 355.601562 C 100.683594 354.640625 100.324219 353.738281 99.902344 352.832031 L 13.039062 439.699219 C 13.941406 440.121094 14.902344 440.480469 15.804688 440.84375 Z M 89.367188 335.917969 C 88.765625 335.195312 88.164062 334.535156 87.5 333.871094 L -5.863281 427.238281 C -5.203125 427.898438 -4.480469 428.5 -3.816406 429.101562 Z M 95.929688 345.007812 C 95.449219 344.226562 94.964844 343.382812 94.425781 342.601562 L 2.863281 434.160156 C 3.644531 434.703125 4.429688 435.183594 5.273438 435.664062 Z M 98.699219 350.125 C 98.277344 349.28125 97.855469 348.378906 97.375 347.535156 L 7.800781 437.109375 C 8.644531 437.589844 9.484375 438.011719 10.386719 438.433594 Z M 98.699219 350.125 " fill-opacity="1" fill-rule="nonzero"/></g><g clip-path="url(#f4ba16acff)"><path fill="#d5b9b1" d="M -6.570312 260.851562 C -35.359375 260.851562 -58.695312 284.1875 -58.695312 312.976562 C -58.695312 341.765625 -35.359375 365.101562 -6.570312 365.101562 C 22.214844 365.101562 45.554688 341.765625 45.554688 312.976562 C 45.554688 284.1875 22.214844 260.851562 -6.570312 260.851562 " fill-opacity="1" fill-rule="nonzero"/></g><g clip-path="url(#0065528a3a)"><path fill="#457373" d="M 68.855469 217.746094 L 82.066406 225.445312 L 94.519531 218.1875 L 96.042969 220.820312 L 82.066406 228.960938 L 68.855469 221.261719 L 55.640625 228.960938 L 42.425781 221.261719 L 29.214844 228.960938 L 16 221.261719 L 2.785156 228.960938 L -11.191406 220.820312 L -9.664062 218.1875 L 2.785156 225.445312 L 16 217.746094 L 29.214844 225.445312 L 42.425781 217.746094 L 55.640625 225.445312 L 68.855469 217.746094 " fill-opacity="1" fill-rule="nonzero"/></g><g clip-path="url(#7fc552edc0)"><path fill="#457373" d="M 68.855469 233.472656 L 82.066406 241.171875 L 94.519531 233.917969 L 96.042969 236.546875 L 82.066406 244.6875 L 68.855469 236.992188 L 55.640625 244.6875 L 42.425781 236.988281 L 29.214844 244.6875 L 16 236.992188 L 2.785156 244.6875 L -11.191406 236.546875 L -9.664062 233.917969 L 2.785156 241.171875 L 16 233.472656 L 29.214844 241.171875 L 42.425781 233.472656 L 55.640625 241.171875 L 68.855469 233.472656 " fill-opacity="1" fill-rule="nonzero"/></g><g clip-path="url(#6b3eb8e9de)"><path fill="#457373" d="M 110.195312 566.40625 L 72.347656 632.085938 L 148.046875 632.085938 Z M 71.515625 633.050781 L 70.679688 633.050781 L 110.195312 564.480469 L 149.710938 633.050781 L 71.515625 633.050781 " fill-opacity="1" fill-rule="nonzero"/></g><g clip-path="url(#61e9cac0fb)"><path fill="#a4bdbe" d="M 98.332031 658.980469 L 159.652344 598.453125 L 76.675781 575.511719 Z M 98.332031 658.980469 " fill-opacity="1" fill-rule="nonzero"/></g><g clip-path="url(#667fe04379)"><path fill="#d5b9b1" d="M 8.621094 174.914062 C 8.621094 176.050781 7.699219 176.96875 6.558594 176.96875 C 5.421875 176.96875 4.5 176.050781 4.5 174.914062 C 4.5 173.78125 5.421875 172.863281 6.558594 172.863281 C 7.699219 172.863281 8.621094 173.78125 8.621094 174.914062 " fill-opacity="1" fill-rule="nonzero"/></g><g clip-path="url(#f6f0fb2ffb)"><path fill="#d5b9b1" d="M 17.453125 174.914062 C 17.453125 176.050781 16.53125 176.96875 15.394531 176.96875 C 14.253906 176.96875 13.332031 176.050781 13.332031 174.914062 C 13.332031 173.78125 14.253906 172.863281 15.394531 172.863281 C 16.53125 172.863281 17.453125 173.78125 17.453125 174.914062 " fill-opacity="1" fill-rule="nonzero"/></g><g clip-path="url(#b10668fc1f)"><path fill="#d5b9b1" d="M 26.289062 174.914062 C 26.289062 176.050781 25.363281 176.96875 24.226562 176.96875 C 23.089844 176.96875 22.164062 176.050781 22.164062 174.914062 C 22.164062 173.78125 23.089844 172.863281 24.226562 172.863281 C 25.363281 172.863281 26.289062 173.78125 26.289062 174.914062 " fill-opacity="1" fill-rule="nonzero"/></g><g clip-path="url(#d162ceb6fa)"><path fill="#d5b9b1" d="M 35.121094 174.914062 C 35.121094 176.050781 34.199219 176.96875 33.058594 176.96875 C 31.921875 176.96875 31 176.050781 31 174.914062 C 31 173.78125 31.921875 172.863281 33.058594 172.863281 C 34.199219 172.863281 35.121094 173.78125 35.121094 174.914062 " fill-opacity="1" fill-rule="nonzero"/></g><g clip-path="url(#5f16624e7f)"><path fill="#d5b9b1" d="M 43.953125 174.914062 C 43.953125 176.050781 43.03125 176.96875 41.894531 176.96875 C 40.753906 176.96875 39.832031 176.050781 39.832031 174.914062 C 39.832031 173.78125 40.753906 172.863281 41.894531 172.863281 C 43.03125 172.863281 43.953125 173.78125 43.953125 174.914062 " fill-opacity="1" fill-rule="nonzero"/></g><g clip-path="url(#ac32ddaf57)"><path fill="#d5b9b1" d="M 52.789062 174.914062 C 52.789062 176.050781 51.863281 176.96875 50.726562 176.96875 C 49.589844 176.96875 48.664062 176.050781 48.664062 174.914062 C 48.664062 173.78125 49.589844 172.863281 50.726562 172.863281 C 51.863281 172.863281 52.789062 173.78125 52.789062 174.914062 " fill-opacity="1" fill-rule="nonzero"/></g><g clip-path="url(#e692f624f4)"><path fill="#d5b9b1" d="M 61.621094 174.914062 C 61.621094 176.050781 60.699219 176.96875 59.558594 176.96875 C 58.421875 176.96875 57.5 176.050781 57.5 174.914062 C 57.5 173.78125 58.421875 172.863281 59.558594 172.863281 C 60.699219 172.863281 61.621094 173.78125 61.621094 174.914062 " fill-opacity="1" fill-rule="nonzero"/></g><g clip-path="url(#cc6c59a59f)"><path fill="#d5b9b1" d="M 70.453125 174.914062 C 70.453125 176.050781 69.53125 176.96875 68.394531 176.96875 C 67.253906 176.96875 66.332031 176.050781 66.332031 174.914062 C 66.332031 173.78125 67.253906 172.863281 68.394531 172.863281 C 69.53125 172.863281 70.453125 173.78125 70.453125 174.914062 " fill-opacity="1" fill-rule="nonzero"/></g><path fill="#d5b9b1" d="M 8.621094 166.101562 C 8.621094 167.234375 7.699219 168.15625 6.558594 168.15625 C 5.421875 168.15625 4.5 167.234375 4.5 166.101562 C 4.5 164.964844 5.421875 164.046875 6.558594 164.046875 C 7.699219 164.046875 8.621094 164.964844 8.621094 166.101562 " fill-opacity="1" fill-rule="nonzero"/><path fill="#d5b9b1" d="M 17.453125 166.101562 C 17.453125 167.234375 16.53125 168.15625 15.394531 168.15625 C 14.253906 168.15625 13.332031 167.234375 13.332031 166.101562 C 13.332031 164.964844 14.253906 164.046875 15.394531 164.046875 C 16.53125 164.046875 17.453125 164.964844 17.453125 166.101562 " fill-opacity="1" fill-rule="nonzero"/><path fill="#d5b9b1" d="M 26.289062 166.101562 C 26.289062 167.234375 25.363281 168.15625 24.226562 168.15625 C 23.089844 168.15625 22.164062 167.234375 22.164062 166.101562 C 22.164062 164.964844 23.089844 164.046875 24.226562 164.046875 C 25.363281 164.046875 26.289062 164.964844 26.289062 166.101562 " fill-opacity="1" fill-rule="nonzero"/><path fill="#d5b9b1" d="M 35.121094 166.101562 C 35.121094 167.234375 34.199219 168.15625 33.058594 168.15625 C 31.921875 168.15625 31 167.234375 31 166.101562 C 31 164.964844 31.921875 164.046875 33.058594 164.046875 C 34.199219 164.046875 35.121094 164.964844 35.121094 166.101562 " fill-opacity="1" fill-rule="nonzero"/><path fill="#d5b9b1" d="M 43.953125 166.101562 C 43.953125 167.234375 43.03125 168.15625 41.894531 168.15625 C 40.753906 168.15625 39.832031 167.234375 39.832031 166.101562 C 39.832031 164.964844 40.753906 164.046875 41.894531 164.046875 C 43.03125 164.046875 43.953125 164.964844 43.953125 166.101562 " fill-opacity="1" fill-rule="nonzero"/><path fill="#d5b9b1" d="M 52.789062 166.101562 C 52.789062 167.234375 51.863281 168.15625 50.726562 168.15625 C 49.589844 168.15625 48.664062 167.234375 48.664062 166.101562 C 48.664062 164.964844 49.589844 164.046875 50.726562 164.046875 C 51.863281 164.046875 52.789062 164.964844 52.789062 166.101562 " fill-opacity="1" fill-rule="nonzero"/><path fill="#d5b9b1" d="M 61.621094 166.101562 C 61.621094 167.234375 60.699219 168.15625 59.558594 168.15625 C 58.421875 168.15625 57.5 167.234375 57.5 166.101562 C 57.5 164.964844 58.421875 164.046875 59.558594 164.046875 C 60.699219 164.046875 61.621094 164.964844 61.621094 166.101562 " fill-opacity="1" fill-rule="nonzero"/><path fill="#d5b9b1" d="M 8.621094 157.285156 C 8.621094 158.417969 7.699219 159.339844 6.558594 159.339844 C 5.421875 159.339844 4.5 158.417969 4.5 157.285156 C 4.5 156.152344 5.421875 155.230469 6.558594 155.230469 C 7.699219 155.230469 8.621094 156.152344 8.621094 157.285156 " fill-opacity="1" fill-rule="nonzero"/><path fill="#d5b9b1" d="M 17.453125 157.285156 C 17.453125 158.417969 16.53125 159.339844 15.394531 159.339844 C 14.253906 159.339844 13.332031 158.417969 13.332031 157.285156 C 13.332031 156.152344 14.253906 155.230469 15.394531 155.230469 C 16.53125 155.230469 17.453125 156.152344 17.453125 157.285156 " fill-opacity="1" fill-rule="nonzero"/><path fill="#d5b9b1" d="M 26.289062 157.285156 C 26.289062 158.417969 25.363281 159.339844 24.226562 159.339844 C 23.089844 159.339844 22.164062 158.417969 22.164062 157.285156 C 22.164062 156.152344 23.089844 155.230469 24.226562 155.230469 C 25.363281 155.230469 26.289062 156.152344 26.289062 157.285156 " fill-opacity="1" fill-rule="nonzero"/><path fill="#d5b9b1" d="M 35.121094 157.285156 C 35.121094 158.417969 34.199219 159.339844 33.058594 159.339844 C 31.921875 159.339844 31 158.417969 31 157.285156 C 31 156.152344 31.921875 155.230469 33.058594 155.230469 C 34.199219 155.230469 35.121094 156.152344 35.121094 157.285156 " fill-opacity="1" fill-rule="nonzero"/><path fill="#d5b9b1" d="M 43.953125 157.285156 C 43.953125 158.417969 43.03125 159.339844 41.894531 159.339844 C 40.753906 159.339844 39.832031 158.417969 39.832031 157.285156 C 39.832031 156.152344 40.753906 155.230469 41.894531 155.230469 C 43.03125 155.230469 43.953125 156.152344 43.953125 157.285156 " fill-opacity="1" fill-rule="nonzero"/><path fill="#d5b9b1" d="M 52.789062 157.285156 C 52.789062 158.417969 51.863281 159.339844 50.726562 159.339844 C 49.589844 159.339844 48.664062 158.417969 48.664062 157.285156 C 48.664062 156.152344 49.589844 155.230469 50.726562 155.230469 C 51.863281 155.230469 52.789062 156.152344 52.789062 157.285156 " fill-opacity="1" fill-rule="nonzero"/><path fill="#d5b9b1" d="M 8.621094 148.46875 C 8.621094 149.605469 7.699219 150.523438 6.558594 150.523438 C 5.421875 150.523438 4.5 149.605469 4.5 148.46875 C 4.5 147.335938 5.421875 146.414062 6.558594 146.414062 C 7.699219 146.414062 8.621094 147.335938 8.621094 148.46875 " fill-opacity="1" fill-rule="nonzero"/><path fill="#d5b9b1" d="M 17.453125 148.46875 C 17.453125 149.605469 16.53125 150.523438 15.394531 150.523438 C 14.253906 150.523438 13.332031 149.605469 13.332031 148.46875 C 13.332031 147.335938 14.253906 146.414062 15.394531 146.414062 C 16.53125 146.414062 17.453125 147.335938 17.453125 148.46875 " fill-opacity="1" fill-rule="nonzero"/><path fill="#d5b9b1" d="M 26.289062 148.46875 C 26.289062 149.605469 25.363281 150.523438 24.226562 150.523438 C 23.089844 150.523438 22.164062 149.605469 22.164062 148.46875 C 22.164062 147.335938 23.089844 146.414062 24.226562 146.414062 C 25.363281 146.414062 26.289062 147.335938 26.289062 148.46875 " fill-opacity="1" fill-rule="nonzero"/><path fill="#d5b9b1" d="M 35.121094 148.46875 C 35.121094 149.605469 34.199219 150.523438 33.058594 150.523438 C 31.921875 150.523438 31 149.605469 31 148.46875 C 31 147.335938 31.921875 146.414062 33.058594 146.414062 C 34.199219 146.414062 35.121094 147.335938 35.121094 148.46875 " fill-opacity="1" fill-rule="nonzero"/><path fill="#d5b9b1" d="M 43.953125 148.46875 C 43.953125 149.605469 43.03125 150.523438 41.894531 150.523438 C 40.753906 150.523438 39.832031 149.605469 39.832031 148.46875 C 39.832031 147.335938 40.753906 146.414062 41.894531 146.414062 C 43.03125 146.414062 43.953125 147.335938 43.953125 148.46875 " fill-opacity="1" fill-rule="nonzero"/><path fill="#d5b9b1" d="M 8.621094 139.65625 C 8.621094 140.789062 7.699219 141.710938 6.558594 141.710938 C 5.421875 141.710938 4.5 140.789062 4.5 139.65625 C 4.5 138.519531 5.421875 137.601562 6.558594 137.601562 C 7.699219 137.601562 8.621094 138.519531 8.621094 139.65625 " fill-opacity="1" fill-rule="nonzero"/><path fill="#d5b9b1" d="M 17.453125 139.65625 C 17.453125 140.789062 16.53125 141.710938 15.394531 141.710938 C 14.253906 141.710938 13.332031 140.789062 13.332031 139.65625 C 13.332031 138.519531 14.253906 137.601562 15.394531 137.601562 C 16.53125 137.601562 17.453125 138.519531 17.453125 139.65625 " fill-opacity="1" fill-rule="nonzero"/><path fill="#d5b9b1" d="M 26.289062 139.65625 C 26.289062 140.789062 25.363281 141.710938 24.226562 141.710938 C 23.089844 141.710938 22.164062 140.789062 22.164062 139.65625 C 22.164062 138.519531 23.089844 137.601562 24.226562 137.601562 C 25.363281 137.601562 26.289062 138.519531 26.289062 139.65625 " fill-opacity="1" fill-rule="nonzero"/><path fill="#d5b9b1" d="M 35.121094 139.65625 C 35.121094 140.789062 34.199219 141.710938 33.058594 141.710938 C 31.921875 141.710938 31 140.789062 31 139.65625 C 31 138.519531 31.921875 137.601562 33.058594 137.601562 C 34.199219 137.601562 35.121094 138.519531 35.121094 139.65625 " fill-opacity="1" fill-rule="nonzero"/><path fill="#d5b9b1" d="M 8.621094 130.839844 C 8.621094 131.972656 7.699219 132.894531 6.558594 132.894531 C 5.421875 132.894531 4.5 131.972656 4.5 130.839844 C 4.5 129.707031 5.421875 128.785156 6.558594 128.785156 C 7.699219 128.785156 8.621094 129.707031 8.621094 130.839844 " fill-opacity="1" fill-rule="nonzero"/><path fill="#d5b9b1" d="M 17.453125 130.839844 C 17.453125 131.972656 16.53125 132.894531 15.394531 132.894531 C 14.253906 132.894531 13.332031 131.972656 13.332031 130.839844 C 13.332031 129.707031 14.253906 128.785156 15.394531 128.785156 C 16.53125 128.785156 17.453125 129.707031 17.453125 130.839844 " fill-opacity="1" fill-rule="nonzero"/><path fill="#d5b9b1" d="M 26.289062 130.839844 C 26.289062 131.972656 25.363281 132.894531 24.226562 132.894531 C 23.089844 132.894531 22.164062 131.972656 22.164062 130.839844 C 22.164062 129.707031 23.089844 128.785156 24.226562 128.785156 C 25.363281 128.785156 26.289062 129.707031 26.289062 130.839844 " fill-opacity="1" fill-rule="nonzero"/><g clip-path="url(#4c9b623877)"><path fill="#d5b9b1" d="M 17.453125 122.023438 C 17.453125 123.160156 16.53125 124.078125 15.394531 124.078125 C 14.253906 124.078125 13.332031 123.160156 13.332031 122.023438 C 13.332031 120.890625 14.253906 119.96875 15.394531 119.96875 C 16.53125 119.96875 17.453125 120.890625 17.453125 122.023438 " fill-opacity="1" fill-rule="nonzero"/></g><g clip-path="url(#ca82962e46)"><path fill="#a4bdbe" d="M 67.25 96.832031 C 67.25 108.894531 57.511719 118.675781 45.5 118.675781 C 33.492188 118.675781 23.75 108.894531 23.75 96.832031 C 23.75 84.769531 33.492188 74.988281 45.5 74.988281 C 57.511719 74.988281 67.25 84.769531 67.25 96.832031 Z M 35.550781 96.832031 C 35.550781 102.347656 40.003906 106.824219 45.5 106.824219 C 50.996094 106.824219 55.453125 102.347656 55.453125 96.832031 C 55.453125 91.316406 50.996094 86.839844 45.5 86.839844 C 40.003906 86.839844 35.550781 91.308594 35.550781 96.832031 Z M 35.550781 96.832031 " fill-opacity="1" fill-rule="nonzero"/></g><g clip-path="url(#da416c85ed)"><path fill="#a4bdbe" d="M 45.5 147.300781 C 44.925781 147.300781 44.355469 147.359375 43.792969 147.472656 C 43.230469 147.582031 42.683594 147.75 42.152344 147.972656 C 41.621094 148.191406 41.117188 148.460938 40.640625 148.78125 C 40.164062 149.101562 39.722656 149.46875 39.316406 149.875 C 38.910156 150.28125 38.546875 150.726562 38.226562 151.207031 C 37.90625 151.6875 37.636719 152.191406 37.417969 152.726562 C 37.199219 153.257812 37.03125 153.808594 36.921875 154.375 C 36.808594 154.9375 36.753906 155.511719 36.753906 156.085938 C 36.753906 156.664062 36.808594 157.234375 36.921875 157.800781 C 37.03125 158.367188 37.199219 158.914062 37.417969 159.449219 C 37.636719 159.980469 37.90625 160.488281 38.226562 160.96875 C 38.546875 161.445312 38.910156 161.890625 39.316406 162.296875 C 39.722656 162.707031 40.164062 163.070312 40.640625 163.390625 C 41.117188 163.710938 41.621094 163.980469 42.152344 164.203125 C 42.683594 164.421875 43.230469 164.589844 43.792969 164.703125 C 44.355469 164.816406 44.925781 164.871094 45.5 164.871094 C 46.074219 164.871094 46.644531 164.816406 47.207031 164.703125 C 47.769531 164.589844 48.316406 164.421875 48.847656 164.203125 C 49.378906 163.980469 49.882812 163.710938 50.359375 163.390625 C 50.839844 163.070312 51.28125 162.707031 51.6875 162.296875 C 52.09375 161.890625 52.453125 161.445312 52.773438 160.96875 C 53.09375 160.488281 53.363281 159.980469 53.582031 159.449219 C 53.800781 158.914062 53.96875 158.367188 54.082031 157.800781 C 54.191406 157.234375 54.25 156.664062 54.25 156.085938 C 54.25 155.511719 54.191406 154.9375 54.082031 154.375 C 53.96875 153.808594 53.800781 153.257812 53.582031 152.726562 C 53.363281 152.191406 53.09375 151.6875 52.773438 151.207031 C 52.453125 150.726562 52.09375 150.28125 51.6875 149.875 C 51.28125 149.46875 50.839844 149.101562 50.359375 148.78125 C 49.882812 148.460938 49.378906 148.191406 48.847656 147.972656 C 48.316406 147.75 47.769531 147.582031 47.207031 147.472656 C 46.644531 147.359375 46.074219 147.300781 45.5 147.300781 Z M 45.5 147.300781 " fill-opacity="1" fill-rule="nonzero"/></g><g clip-path="url(#ffbd2adcbf)"><path fill="#f2f2f2" d="M -43.941406 472.371094 L -43.941406 570.621094 L 88.808594 570.621094 L 88.808594 472.371094 L -43.941406 472.371094 M 86.296875 568.113281 L -41.484375 568.113281 L -41.484375 474.828125 L 86.296875 474.828125 L 86.296875 568.113281 " fill-opacity="1" fill-rule="nonzero"/></g><g clip-path="url(#f23317bad2)"><path fill="#457373" d="M -26.3125 492.878906 L 63.6875 492.878906 L 63.6875 582.878906 L -26.3125 582.878906 L -26.3125 492.878906 " fill-opacity="1" fill-rule="nonzero"/></g><g clip-path="url(#d93c34099e)"><path fill="#a4bdbe" d="M 18.804688 454.601562 L 122.304688 454.601562 L 122.304688 544.59375 L 18.804688 544.59375 L 18.804688 454.601562 " fill-opacity="1" fill-rule="nonzero"/></g><g clip-path="url(#31a0d10d43)"><path fill="#d5b9b1" d="M 951.210938 77.101562 L 914.613281 140.117188 L 987.804688 140.117188 Z M 951.210938 77.101562 " fill-opacity="1" fill-rule="nonzero"/></g><g clip-path="url(#fc2c69b003)"><path fill="#a4bdbe" d="M 951.210938 203.128906 L 987.804688 203.128906 L 951.210938 140.117188 L 914.613281 203.128906 Z M 951.210938 203.128906 " fill-opacity="1" fill-rule="nonzero"/></g><g clip-path="url(#d04fbf4e49)"><g clip-path="url(#944f9dc679)"><path fill="#d5b9b1" d="M 931.011719 223.230469 C 906.714844 234.34375 896.03125 263.050781 907.148438 287.34375 C 918.261719 311.640625 946.96875 322.324219 971.261719 311.207031 C 995.558594 300.09375 1006.242188 271.386719 995.128906 247.09375 C 984.011719 222.796875 955.304688 212.113281 931.011719 223.230469 " fill-opacity="1" fill-rule="nonzero"/></g></g><g clip-path="url(#0a2819b2f0)"><g clip-path="url(#d430f21a2a)"><path fill="#457373" d="M 912.910156 581.628906 C 912.21875 580.9375 911.550781 580.171875 910.910156 579.457031 L 949.625 475.445312 C 950.574219 475.324219 951.582031 475.179688 952.558594 475.109375 Z M 940.453125 477.433594 C 939.394531 477.730469 938.304688 478.101562 937.265625 478.453125 L 903.5 569.179688 C 904.054688 570.121094 904.636719 571.113281 905.246094 572.03125 Z M 969.113281 475.914062 C 968.222656 475.753906 967.332031 475.59375 966.460938 475.488281 L 923.652344 590.507812 C 924.378906 590.996094 925.15625 591.457031 925.9375 591.921875 Z M 958.253906 474.898438 C 957.308594 474.890625 956.359375 474.882812 955.433594 474.925781 L 914.96875 583.648438 C 915.640625 584.285156 916.363281 584.898438 917.082031 585.515625 Z M 963.753906 475.214844 C 962.835938 475.132812 961.914062 475.046875 961.019531 475.019531 L 919.199219 587.382812 C 919.894531 587.945312 920.644531 588.484375 921.398438 589.019531 Z M 911.054688 495.925781 C 909.109375 498.136719 907.285156 500.484375 905.636719 502.941406 L 895.574219 529.96875 C 895.164062 532.925781 895.011719 535.894531 895.089844 538.820312 Z M 930.585938 481.195312 L 900.234375 562.734375 C 900.761719 563.878906 901.261719 564.972656 901.835938 566.097656 L 933.941406 479.722656 C 932.824219 480.167969 931.679688 480.695312 930.585938 481.195312 Z M 1015 511.359375 L 983.832031 595.101562 C 984.980469 594.578125 986.175781 594.027344 987.277344 593.402344 L 1016.492188 514.898438 C 1016.023438 513.726562 1015.527344 512.507812 1015 511.359375 Z M 974.328125 477.117188 C 973.464844 476.882812 972.601562 476.648438 971.761719 476.464844 L 928.300781 593.234375 C 929.054688 593.644531 929.863281 594.03125 930.667969 594.417969 Z M 927.085938 483.046875 C 925.832031 483.746094 924.652344 484.476562 923.445312 485.277344 L 897.503906 554.976562 C 897.890625 556.371094 898.308594 557.695312 898.800781 559.042969 Z M 919.636719 487.96875 C 918.238281 489.046875 916.867188 490.179688 915.542969 491.414062 L 895.484375 545.191406 C 895.730469 546.96875 895.953125 548.691406 896.328125 550.472656 Z M 946.582031 475.953125 C 945.546875 476.175781 944.566406 476.371094 943.535156 476.59375 L 907.023438 574.683594 C 907.664062 575.523438 908.277344 576.316406 908.914062 577.15625 Z M 1019.082031 523.035156 C 1018.722656 521.5625 1018.335938 520.164062 1017.875 518.738281 L 990.832031 591.394531 C 992.113281 590.621094 993.371094 589.792969 994.554688 588.9375 Z M 1013.394531 508.125 C 1012.867188 507.109375 1012.285156 506.113281 1011.707031 505.121094 L 977.234375 597.617188 C 978.324219 597.242188 979.414062 596.871094 980.480469 596.445312 Z M 1009.878906 502.367188 C 1009.292969 501.5 1008.65625 500.65625 1008.019531 499.816406 L 970.949219 599.296875 C 971.980469 599.074219 973.015625 598.855469 974.023438 598.582031 Z M 979.324219 478.675781 C 978.488281 478.363281 977.675781 478.105469 976.839844 477.792969 L 933.042969 595.472656 C 933.824219 595.808594 934.660156 596.117188 935.496094 596.429688 Z M 1018.355469 555.179688 C 1019.695312 550.535156 1020.472656 545.898438 1020.734375 541.242188 L 1007.707031 576.242188 C 1010.554688 572.546875 1013 568.527344 1015.023438 564.140625 Z M 1006.101562 497.414062 C 1005.4375 496.648438 1004.792969 495.933594 1004.128906 495.167969 L 965.019531 600.246094 C 966.023438 600.097656 966.976562 599.980469 967.980469 599.835938 Z M 1020.734375 533.808594 C 1020.597656 531.855469 1020.410156 529.925781 1020.089844 527.992188 L 998.558594 585.84375 C 1000.0625 584.589844 1001.46875 583.253906 1002.847656 581.867188 Z M 988.960938 483.085938 C 988.207031 482.671875 987.429688 482.210938 986.621094 481.824219 L 943.023438 598.84375 C 943.886719 599.078125 944.78125 599.238281 945.617188 599.417969 Z M 1002.097656 493.074219 C 1001.40625 492.382812 1000.734375 491.746094 1000.011719 491.128906 L 959.238281 600.683594 C 960.1875 600.691406 961.164062 600.625 962.085938 600.578125 Z M 984.199219 480.664062 C 983.394531 480.277344 982.609375 479.941406 981.777344 479.632812 L 937.949219 597.386719 C 938.785156 597.695312 939.648438 597.929688 940.457031 598.191406 Z M 993.476562 485.933594 C 992.75 485.445312 992 484.90625 991.222656 484.445312 L 948.242188 599.921875 C 949.132812 600.078125 950 600.1875 950.921875 600.269531 Z M 997.898438 489.261719 C 997.199219 488.699219 996.480469 488.085938 995.726562 487.546875 L 953.679688 600.519531 C 954.601562 600.601562 955.496094 600.632812 956.445312 600.640625 Z M 997.898438 489.261719 " fill-opacity="1" fill-rule="nonzero"/></g></g><g clip-path="url(#3debfa48e1)"><path fill="#457373" d="M 769.136719 562.042969 C 767.976562 562.042969 767.035156 562.984375 767.035156 564.140625 C 767.035156 565.296875 767.976562 566.238281 769.136719 566.238281 C 770.292969 566.238281 771.238281 565.296875 771.238281 564.140625 C 771.238281 562.984375 770.292969 562.042969 769.136719 562.042969 " fill-opacity="1" fill-rule="nonzero"/></g><g clip-path="url(#cbdec74f0f)"><path fill="#457373" d="M 781.097656 562.042969 C 779.9375 562.042969 778.996094 562.984375 778.996094 564.140625 C 778.996094 565.296875 779.9375 566.238281 781.097656 566.238281 C 782.253906 566.238281 783.195312 565.296875 783.195312 564.140625 C 783.195312 562.984375 782.253906 562.042969 781.097656 562.042969 " fill-opacity="1" fill-rule="nonzero"/></g><g clip-path="url(#985196d2a7)"><path fill="#457373" d="M 793.054688 562.042969 C 791.898438 562.042969 790.957031 562.984375 790.957031 564.140625 C 790.957031 565.296875 791.898438 566.238281 793.054688 566.238281 C 794.214844 566.238281 795.15625 565.296875 795.15625 564.140625 C 795.15625 562.984375 794.214844 562.042969 793.054688 562.042969 " fill-opacity="1" fill-rule="nonzero"/></g><g clip-path="url(#106aea6226)"><path fill="#457373" d="M 805.015625 562.042969 C 803.859375 562.042969 802.914062 562.984375 802.914062 564.140625 C 802.914062 565.296875 803.859375 566.238281 805.015625 566.238281 C 806.175781 566.238281 807.117188 565.296875 807.117188 564.140625 C 807.117188 562.984375 806.175781 562.042969 805.015625 562.042969 " fill-opacity="1" fill-rule="nonzero"/></g><g clip-path="url(#2b799c7990)"><path fill="#457373" d="M 816.976562 562.042969 C 815.816406 562.042969 814.875 562.984375 814.875 564.140625 C 814.875 565.296875 815.816406 566.238281 816.976562 566.238281 C 818.132812 566.238281 819.078125 565.296875 819.078125 564.140625 C 819.078125 562.984375 818.132812 562.042969 816.976562 562.042969 " fill-opacity="1" fill-rule="nonzero"/></g><g clip-path="url(#60857ace26)"><path fill="#457373" d="M 828.9375 562.042969 C 827.777344 562.042969 826.835938 562.984375 826.835938 564.140625 C 826.835938 565.296875 827.777344 566.238281 828.9375 566.238281 C 830.09375 566.238281 831.035156 565.296875 831.035156 564.140625 C 831.035156 562.984375 830.09375 562.042969 828.9375 562.042969 " fill-opacity="1" fill-rule="nonzero"/></g><g clip-path="url(#8ed4bed89e)"><path fill="#457373" d="M 840.894531 562.042969 C 839.738281 562.042969 838.792969 562.984375 838.792969 564.140625 C 838.792969 565.296875 839.738281 566.238281 840.894531 566.238281 C 842.054688 566.238281 842.996094 565.296875 842.996094 564.140625 C 842.996094 562.984375 842.054688 562.042969 840.894531 562.042969 " fill-opacity="1" fill-rule="nonzero"/></g><path fill="#457373" d="M 769.136719 573.980469 C 767.976562 573.980469 767.035156 574.921875 767.035156 576.078125 C 767.035156 577.234375 767.976562 578.175781 769.136719 578.175781 C 770.292969 578.175781 771.238281 577.234375 771.238281 576.078125 C 771.238281 574.921875 770.292969 573.980469 769.136719 573.980469 " fill-opacity="1" fill-rule="nonzero"/><path fill="#457373" d="M 781.097656 573.980469 C 779.9375 573.980469 778.996094 574.921875 778.996094 576.078125 C 778.996094 577.234375 779.9375 578.175781 781.097656 578.175781 C 782.253906 578.175781 783.195312 577.234375 783.195312 576.078125 C 783.195312 574.921875 782.253906 573.980469 781.097656 573.980469 " fill-opacity="1" fill-rule="nonzero"/><path fill="#457373" d="M 793.054688 573.980469 C 791.898438 573.980469 790.957031 574.921875 790.957031 576.078125 C 790.957031 577.234375 791.898438 578.175781 793.054688 578.175781 C 794.214844 578.175781 795.15625 577.234375 795.15625 576.078125 C 795.15625 574.921875 794.214844 573.980469 793.054688 573.980469 " fill-opacity="1" fill-rule="nonzero"/><path fill="#457373" d="M 805.015625 573.980469 C 803.859375 573.980469 802.914062 574.921875 802.914062 576.078125 C 802.914062 577.234375 803.859375 578.175781 805.015625 578.175781 C 806.175781 578.175781 807.117188 577.234375 807.117188 576.078125 C 807.117188 574.921875 806.175781 573.980469 805.015625 573.980469 " fill-opacity="1" fill-rule="nonzero"/><path fill="#457373" d="M 816.976562 573.980469 C 815.816406 573.980469 814.875 574.921875 814.875 576.078125 C 814.875 577.234375 815.816406 578.175781 816.976562 578.175781 C 818.132812 578.175781 819.078125 577.234375 819.078125 576.078125 C 819.078125 574.921875 818.132812 573.980469 816.976562 573.980469 " fill-opacity="1" fill-rule="nonzero"/><path fill="#457373" d="M 828.9375 573.980469 C 827.777344 573.980469 826.835938 574.921875 826.835938 576.078125 C 826.835938 577.234375 827.777344 578.175781 828.9375 578.175781 C 830.09375 578.175781 831.035156 577.234375 831.035156 576.078125 C 831.035156 574.921875 830.09375 573.980469 828.9375 573.980469 " fill-opacity="1" fill-rule="nonzero"/><path fill="#457373" d="M 840.894531 573.980469 C 839.738281 573.980469 838.792969 574.921875 838.792969 576.078125 C 838.792969 577.234375 839.738281 578.175781 840.894531 578.175781 C 842.054688 578.175781 842.996094 577.234375 842.996094 576.078125 C 842.996094 574.921875 842.054688 573.980469 840.894531 573.980469 " fill-opacity="1" fill-rule="nonzero"/><path fill="#457373" d="M 769.136719 585.84375 C 767.976562 585.84375 767.035156 586.785156 767.035156 587.941406 C 767.035156 589.097656 767.976562 590.039062 769.136719 590.039062 C 770.292969 590.039062 771.238281 589.097656 771.238281 587.941406 C 771.238281 586.785156 770.292969 585.84375 769.136719 585.84375 " fill-opacity="1" fill-rule="nonzero"/><path fill="#457373" d="M 781.097656 585.84375 C 779.9375 585.84375 778.996094 586.785156 778.996094 587.941406 C 778.996094 589.097656 779.9375 590.039062 781.097656 590.039062 C 782.253906 590.039062 783.195312 589.097656 783.195312 587.941406 C 783.195312 586.785156 782.253906 585.84375 781.097656 585.84375 " fill-opacity="1" fill-rule="nonzero"/><path fill="#457373" d="M 793.054688 585.84375 C 791.898438 585.84375 790.957031 586.785156 790.957031 587.941406 C 790.957031 589.097656 791.898438 590.039062 793.054688 590.039062 C 794.214844 590.039062 795.15625 589.097656 795.15625 587.941406 C 795.15625 586.785156 794.214844 585.84375 793.054688 585.84375 " fill-opacity="1" fill-rule="nonzero"/><path fill="#457373" d="M 805.015625 585.84375 C 803.859375 585.84375 802.914062 586.785156 802.914062 587.941406 C 802.914062 589.097656 803.859375 590.039062 805.015625 590.039062 C 806.175781 590.039062 807.117188 589.097656 807.117188 587.941406 C 807.117188 586.785156 806.175781 585.84375 805.015625 585.84375 " fill-opacity="1" fill-rule="nonzero"/><path fill="#457373" d="M 816.976562 585.84375 C 815.816406 585.84375 814.875 586.785156 814.875 587.941406 C 814.875 589.097656 815.816406 590.039062 816.976562 590.039062 C 818.132812 590.039062 819.078125 589.097656 819.078125 587.941406 C 819.078125 586.785156 818.132812 585.84375 816.976562 585.84375 " fill-opacity="1" fill-rule="nonzero"/><path fill="#457373" d="M 828.9375 585.84375 C 827.777344 585.84375 826.835938 586.785156 826.835938 587.941406 C 826.835938 589.097656 827.777344 590.039062 828.9375 590.039062 C 830.09375 590.039062 831.035156 589.097656 831.035156 587.941406 C 831.035156 586.785156 830.09375 585.84375 828.9375 585.84375 " fill-opacity="1" fill-rule="nonzero"/><path fill="#457373" d="M 840.894531 585.84375 C 839.738281 585.84375 838.792969 586.785156 838.792969 587.941406 C 838.792969 589.097656 839.738281 590.039062 840.894531 590.039062 C 842.054688 590.039062 842.996094 589.097656 842.996094 587.941406 C 842.996094 586.785156 842.054688 585.84375 840.894531 585.84375 " fill-opacity="1" fill-rule="nonzero"/><path fill="#457373" d="M 769.136719 597.785156 C 767.976562 597.785156 767.035156 598.726562 767.035156 599.882812 C 767.035156 601.039062 767.976562 601.980469 769.136719 601.980469 C 770.292969 601.980469 771.238281 601.039062 771.238281 599.882812 C 771.238281 598.726562 770.292969 597.785156 769.136719 597.785156 " fill-opacity="1" fill-rule="nonzero"/><path fill="#457373" d="M 781.097656 597.785156 C 779.9375 597.785156 778.996094 598.726562 778.996094 599.882812 C 778.996094 601.039062 779.9375 601.980469 781.097656 601.980469 C 782.253906 601.980469 783.195312 601.039062 783.195312 599.882812 C 783.195312 598.726562 782.253906 597.785156 781.097656 597.785156 " fill-opacity="1" fill-rule="nonzero"/><path fill="#457373" d="M 793.054688 597.785156 C 791.898438 597.785156 790.957031 598.726562 790.957031 599.882812 C 790.957031 601.039062 791.898438 601.980469 793.054688 601.980469 C 794.214844 601.980469 795.15625 601.039062 795.15625 599.882812 C 795.15625 598.726562 794.214844 597.785156 793.054688 597.785156 " fill-opacity="1" fill-rule="nonzero"/><path fill="#457373" d="M 805.015625 597.785156 C 803.859375 597.785156 802.914062 598.726562 802.914062 599.882812 C 802.914062 601.039062 803.859375 601.980469 805.015625 601.980469 C 806.175781 601.980469 807.117188 601.039062 807.117188 599.882812 C 807.117188 598.726562 806.175781 597.785156 805.015625 597.785156 " fill-opacity="1" fill-rule="nonzero"/><path fill="#457373" d="M 816.976562 597.785156 C 815.816406 597.785156 814.875 598.726562 814.875 599.882812 C 814.875 601.039062 815.816406 601.980469 816.976562 601.980469 C 818.132812 601.980469 819.078125 601.039062 819.078125 599.882812 C 819.078125 598.726562 818.132812 597.785156 816.976562 597.785156 " fill-opacity="1" fill-rule="nonzero"/><path fill="#457373" d="M 828.9375 597.785156 C 827.777344 597.785156 826.835938 598.726562 826.835938 599.882812 C 826.835938 601.039062 827.777344 601.980469 828.9375 601.980469 C 830.09375 601.980469 831.035156 601.039062 831.035156 599.882812 C 831.035156 598.726562 830.09375 597.785156 828.9375 597.785156 " fill-opacity="1" fill-rule="nonzero"/><path fill="#457373" d="M 840.894531 597.785156 C 839.738281 597.785156 838.792969 598.726562 838.792969 599.882812 C 838.792969 601.039062 839.738281 601.980469 840.894531 601.980469 C 842.054688 601.980469 842.996094 601.039062 842.996094 599.882812 C 842.996094 598.726562 842.054688 597.785156 840.894531 597.785156 " fill-opacity="1" fill-rule="nonzero"/><g clip-path="url(#a72339c0a8)"><path fill="#f2f2f2" d="M 891.136719 394.382812 L 891.136719 488.882812 L 981.128906 488.882812 L 981.128906 394.382812 L 891.136719 394.382812 M 978.609375 486.363281 L 893.601562 486.363281 L 893.601562 396.851562 L 978.609375 396.851562 L 978.609375 486.363281 " fill-opacity="1" fill-rule="nonzero"/></g><g clip-path="url(#8701e95d11)"><path fill="#a4bdbe" d="M 874.640625 382.824219 L 964.640625 382.824219 L 964.640625 472.824219 L 874.640625 472.824219 L 874.640625 382.824219 " fill-opacity="1" fill-rule="nonzero"/></g><g clip-path="url(#1f0e7ce4fd)"><g clip-path="url(#31cb221f4a)"><g clip-path="url(#9d8001c049)"><path fill="#d5b9b1" d="M 950.964844 442.851562 L 949.292969 442.890625 C 947.925781 442.917969 946.800781 442.550781 946.003906 441.753906 C 944.351562 440.167969 944.324219 437.480469 944.230469 433.0625 L 944.199219 431.609375 C 942.425781 432.179688 938.117188 435.597656 935.675781 437.527344 C 931.015625 441.234375 928.269531 443.335938 926.316406 443.378906 C 924.953125 443.40625 923.828125 443.039062 923.03125 442.246094 C 921.378906 440.65625 921.347656 437.972656 921.253906 433.550781 L 921.222656 432.097656 C 919.535156 432.691406 915.585938 435.828125 913.144531 437.78125 C 908.453125 441.519531 905.460938 443.820312 903.34375 443.867188 L 903.203125 443.871094 C 901.839844 443.898438 900.714844 443.53125 899.917969 442.734375 C 898.265625 441.148438 898.234375 438.460938 898.140625 434.042969 L 898.109375 432.589844 C 896.335938 433.160156 892.03125 436.578125 889.589844 438.507812 C 884.925781 442.214844 882.183594 444.316406 880.230469 444.359375 C 878.863281 444.386719 877.742188 444.019531 876.941406 443.226562 C 875.289062 441.636719 875.261719 438.953125 875.167969 434.53125 L 875.136719 433.105469 C 873.449219 433.703125 869.5 436.835938 867.058594 438.789062 C 862.367188 442.5 859.375 444.800781 857.257812 444.847656 L 855.582031 444.882812 L 855.511719 441.527344 L 857.183594 441.492188 C 858.328125 441.410156 862.496094 438.105469 864.964844 436.121094 C 870.945312 431.375 874.429688 428.753906 876.882812 429.90625 C 877.472656 430.175781 878.4375 430.9375 878.480469 432.839844 L 878.515625 434.488281 C 878.574219 437.398438 878.609375 440.195312 879.261719 440.824219 C 879.433594 440.988281 879.851562 441.035156 880.160156 441.03125 C 881.214844 440.894531 885.03125 437.875 887.527344 435.890625 C 893.722656 430.949219 897.347656 428.242188 899.855469 429.417969 C 900.449219 429.683594 901.441406 430.449219 901.480469 432.347656 L 901.515625 434 C 901.550781 436.9375 901.609375 439.734375 902.265625 440.335938 C 902.433594 440.5 902.855469 440.546875 903.160156 440.539062 L 903.300781 440.539062 C 904.441406 440.457031 908.613281 437.152344 911.109375 435.167969 C 917.058594 430.421875 920.574219 427.773438 922.996094 428.925781 C 923.589844 429.191406 924.582031 429.957031 924.621094 431.855469 L 924.65625 433.507812 C 924.691406 436.445312 924.75 439.242188 925.40625 439.84375 C 925.578125 440.007812 925.996094 440.054688 926.300781 440.046875 C 927.359375 439.914062 931.171875 436.894531 933.667969 434.910156 C 939.867188 429.992188 943.492188 427.285156 945.972656 428.4375 C 946.5625 428.703125 947.554688 429.464844 947.597656 431.367188 L 947.632812 433.019531 C 947.695312 435.957031 947.726562 438.753906 948.378906 439.355469 C 948.550781 439.519531 948.96875 439.566406 949.277344 439.558594 L 950.949219 439.523438 Z M 950.964844 442.851562 " fill-opacity="1" fill-rule="nonzero"/></g></g></g><g clip-path="url(#f28bed5aaf)"><g clip-path="url(#efae70aa1f)"><path fill="#457373" d="M 964.046875 351.527344 C 951.796875 355.136719 938.851562 353.761719 927.640625 347.636719 C 916.417969 341.53125 908.25 331.398438 904.644531 319.144531 C 901.035156 306.894531 902.410156 293.953125 908.535156 282.738281 C 914.640625 271.515625 924.773438 263.347656 937.027344 259.742188 C 949.277344 256.132812 962.21875 257.507812 973.433594 263.632812 C 984.664062 269.753906 992.824219 279.871094 996.429688 292.125 C 1000.039062 304.375 998.664062 317.320312 992.539062 328.53125 C 986.433594 339.753906 976.300781 347.921875 964.046875 351.527344 Z M 937.835938 262.492188 C 926.316406 265.882812 916.800781 273.570312 911.054688 284.109375 C 905.304688 294.652344 904.003906 306.816406 907.394531 318.335938 C 910.785156 329.855469 918.472656 339.371094 929.011719 345.117188 C 939.554688 350.867188 951.71875 352.167969 963.238281 348.777344 C 974.757812 345.386719 984.273438 337.699219 990.019531 327.160156 C 995.769531 316.617188 997.070312 304.453125 993.679688 292.933594 C 990.289062 281.414062 982.601562 271.898438 972.0625 266.152344 C 961.519531 260.402344 949.355469 259.101562 937.835938 262.492188 Z M 937.835938 262.492188 " fill-opacity="1" fill-rule="nonzero"/></g></g><g clip-path="url(#3741630785)"><path fill="#d5b9b1" d="M 969.164062 587.039062 C 956.597656 587.039062 946.410156 576.960938 946.410156 564.539062 C 946.410156 552.113281 956.597656 542.039062 969.164062 542.039062 C 981.730469 542.039062 991.917969 552.113281 991.917969 564.539062 C 991.917969 576.960938 981.730469 587.039062 969.164062 587.039062 Z M 969.164062 554.242188 C 963.417969 554.242188 958.753906 558.851562 958.753906 564.539062 C 958.753906 570.222656 963.417969 574.832031 969.164062 574.832031 C 974.910156 574.832031 979.570312 570.222656 979.570312 564.539062 C 979.570312 558.851562 974.914062 554.242188 969.164062 554.242188 Z M 969.164062 554.242188 " fill-opacity="1" fill-rule="nonzero"/></g><g clip-path="url(#f1aa5a479e)"><path fill="#d5b9b1" d="M 916.589844 564.539062 C 916.589844 563.941406 916.53125 563.355469 916.414062 562.773438 C 916.296875 562.1875 916.125 561.621094 915.894531 561.074219 C 915.664062 560.523438 915.382812 560.003906 915.050781 559.507812 C 914.714844 559.015625 914.335938 558.558594 913.910156 558.136719 C 913.488281 557.71875 913.023438 557.34375 912.523438 557.011719 C 912.027344 556.683594 911.5 556.402344 910.941406 556.175781 C 910.386719 555.949219 909.816406 555.777344 909.226562 555.660156 C 908.636719 555.546875 908.042969 555.488281 907.441406 555.488281 C 906.839844 555.488281 906.246094 555.546875 905.65625 555.660156 C 905.066406 555.777344 904.496094 555.949219 903.941406 556.175781 C 903.382812 556.402344 902.855469 556.683594 902.359375 557.011719 C 901.859375 557.34375 901.394531 557.71875 900.972656 558.136719 C 900.546875 558.558594 900.167969 559.015625 899.832031 559.507812 C 899.5 560.003906 899.21875 560.523438 898.988281 561.074219 C 898.757812 561.621094 898.585938 562.1875 898.46875 562.773438 C 898.347656 563.355469 898.289062 563.941406 898.289062 564.539062 C 898.289062 565.132812 898.347656 565.71875 898.46875 566.300781 C 898.585938 566.886719 898.757812 567.453125 898.988281 568 C 899.21875 568.550781 899.5 569.070312 899.832031 569.566406 C 900.167969 570.058594 900.546875 570.515625 900.972656 570.9375 C 901.394531 571.355469 901.859375 571.730469 902.359375 572.0625 C 902.855469 572.390625 903.382812 572.671875 903.941406 572.898438 C 904.496094 573.125 905.066406 573.296875 905.65625 573.414062 C 906.246094 573.527344 906.839844 573.585938 907.441406 573.585938 C 908.042969 573.585938 908.636719 573.527344 909.226562 573.414062 C 909.816406 573.296875 910.386719 573.125 910.941406 572.898438 C 911.5 572.671875 912.027344 572.390625 912.523438 572.0625 C 913.023438 571.730469 913.488281 571.355469 913.910156 570.9375 C 914.335938 570.515625 914.714844 570.058594 915.050781 569.566406 C 915.382812 569.070312 915.664062 568.550781 915.894531 568 C 916.125 567.453125 916.296875 566.886719 916.414062 566.300781 C 916.53125 565.71875 916.589844 565.132812 916.589844 564.539062 Z M 916.589844 564.539062 " fill-opacity="1" fill-rule="nonzero"/></g></svg>